{"glyphs":{"0":{"ha":768,"x_min":0,"x_max":0,"o":"m 686 586 b 521 681 650 629 575 669 b 369 703 468 722 369 703 b 474 686 418 703 451 699 b 317 629 419 686 365 669 b 272 582 300 617 285 601 b 206 536 246 571 222 557 b 229 582 213 551 219 567 b 186 263 172 519 153 392 b 260 81 199 190 226 128 b 61 193 142 106 61 193 b 311 26 35 210 143 75 b 436 -14 351 -8 393 -25 b 508 39 467 -8 490 10 b 729 297 592 78 699 156 b 686 586 729 297 769 508 z m 600 550 b 611 532 604 544 608 539 b 553 571 592 549 571 563 l 554 572 b 556 590 554 579 554 586 b 600 550 571 579 588 565 z m 531 606 b 528 589 531 596 528 589 l 531 583 b 433 615 482 606 444 617 b 336 603 433 615 389 615 b 531 606 396 636 469 636 z m 521 568 b 247 511 424 465 300 494 b 279 558 257 528 268 544 b 521 568 426 644 521 568 z m 247 539 b 238 514 244 531 240 522 b 222 521 228 518 222 521 b 247 539 229 528 238 535 z m 189 451 b 415 449 215 364 415 449 b 540 553 415 449 513 503 b 603 322 540 553 617 481 b 594 276 600 306 599 292 b 568 253 588 269 579 263 b 556 244 563 250 561 247 b 553 286 554 257 554 272 b 551 239 553 272 553 256 b 406 210 506 213 451 203 b 546 213 450 194 500 194 b 532 161 543 192 540 175 b 440 99 489 113 440 99 b 344 76 410 85 374 78 b 200 307 282 113 224 199 b 189 451 189 358 188 407 z m 556 214 b 575 222 563 218 568 218 b 554 188 568 211 563 199 b 556 214 556 197 556 207 z "},"1":{"ha":761,"x_min":0,"x_max":0,"o":"m 596 132 b 531 110 542 150 532 117 b 594 124 533 125 565 144 b 619 90 624 108 619 90 b 454 69 600 39 525 49 b 538 213 492 101 526 149 b 415 417 547 315 479 381 l 415 604 b 531 693 451 629 489 660 b 397 756 531 693 444 639 b 69 549 397 756 174 457 b 79 601 69 549 56 567 b 163 618 104 639 150 633 b 75 611 163 618 132 667 b 75 511 22 560 75 511 b 329 547 75 511 135 436 b 332 539 329 543 332 542 l 332 535 b 338 514 336 528 336 522 b 282 511 307 518 282 511 b 338 508 301 511 322 511 l 338 446 b 326 447 332 447 329 447 b 143 349 326 447 144 446 b 313 325 140 256 313 325 b 338 343 313 325 324 335 l 338 208 b 276 135 338 172 310 144 l 275 135 l 297 115 b 136 75 221 107 171 92 b 51 138 82 101 51 138 b 124 68 38 146 67 107 b 60 -6 58 33 60 -6 b 113 -74 60 -6 50 -69 b 178 -35 172 -78 178 -47 b 178 -31 178 -33 178 -32 b 178 -35 178 -31 178 -32 b 113 -65 176 -51 147 -75 b 75 -33 75 -54 75 -33 b 189 31 82 8 132 28 b 297 3 221 17 258 6 b 347 13 304 1 325 4 b 625 61 606 -35 625 61 b 596 132 625 61 649 117 z m 171 379 b 338 435 240 433 297 440 l 338 378 b 171 379 256 339 171 379 z m 451 232 b 442 188 450 214 446 199 b 415 250 425 196 415 222 l 415 390 b 451 232 431 368 457 315 z m 406 119 l 396 119 l 415 144 l 432 164 b 406 119 424 146 415 129 z m 531 110 l 531 108 b 531 110 531 108 531 108 z "},"2":{"ha":701,"x_min":0,"x_max":0,"o":"m 669 439 l 663 482 l 646 482 b 544 681 647 553 626 635 b 218 599 375 754 238 631 b 188 308 136 456 186 279 b 294 589 188 308 146 493 b 510 593 294 589 385 663 b 618 483 574 558 603 511 l 615 485 l 613 482 l 429 492 l 429 490 b 444 417 444 465 450 439 l 446 415 l 444 414 b 433 390 444 407 439 399 l 222 156 b 193 138 214 144 203 139 b 153 136 178 138 164 138 b 104 157 133 139 119 147 l 111 132 b 39 82 49 117 39 82 b 67 6 39 82 11 29 b 135 22 115 -15 131 13 b 136 26 136 24 136 25 b 135 22 136 26 136 25 b 69 14 128 7 96 -6 b 44 53 38 33 44 53 b 122 85 60 81 89 88 l 138 31 l 235 26 b 190 10 213 10 190 10 b 343 0 247 4 299 0 b 360 -8 354 -7 360 -8 l 360 0 b 639 106 633 1 639 106 b 589 182 639 106 654 169 b 515 143 513 194 515 143 b 588 174 515 161 549 188 b 624 138 626 160 624 138 b 415 88 607 74 507 72 b 340 108 388 97 363 104 l 461 249 b 619 357 539 244 619 357 b 636 404 624 361 631 379 b 667 390 647 401 661 399 b 681 375 674 386 679 381 l 678 400 b 646 279 689 379 694 340 b 669 439 646 279 750 374 z m 481 268 l 575 376 b 625 403 590 393 607 401 b 481 268 615 365 585 306 z "},"3":{"ha":893,"x_min":0,"x_max":0,"o":"m 867 638 b 760 615 779 682 760 615 b 861 626 768 639 819 660 b 892 567 904 593 892 567 b 831 528 878 543 857 531 l 818 597 l 665 617 l 604 619 b 685 646 639 647 685 646 b 460 678 599 661 525 672 b 438 693 446 688 438 693 b 436 679 438 689 436 683 b 14 557 35 710 14 557 b 82 440 14 557 -15 465 b 192 490 189 413 192 490 b 83 451 189 463 138 426 b 33 510 26 479 33 510 b 344 558 65 603 213 590 b 538 489 418 528 483 506 l 449 403 b 332 407 396 422 332 407 b 436 390 379 410 413 401 l 364 321 b 153 214 306 317 178 296 b 151 217 153 215 151 215 b 136 238 144 222 139 229 l 149 107 l 206 100 l 207 100 l 426 74 b 476 236 400 96 417 174 l 500 260 b 557 35 517 242 571 168 b 399 -186 539 -144 399 -186 b 25 -93 188 -272 25 -93 b 354 -272 -4 -75 142 -256 b 676 8 397 -275 628 -222 b 518 276 689 142 600 228 l 706 456 b 707 457 706 457 706 457 b 810 465 749 456 783 458 b 847 440 824 458 835 450 l 840 475 b 899 522 888 493 899 522 b 867 638 899 522 944 597 z m 347 306 l 264 225 b 244 210 257 219 251 215 b 185 231 208 218 185 231 b 347 306 247 278 303 299 z m 596 611 b 600 592 599 606 599 599 b 586 600 596 596 590 597 b 596 611 589 603 593 608 z "},"4":{"ha":761,"x_min":0,"x_max":0,"o":"m 751 156 b 676 129 693 175 679 142 b 750 149 682 147 715 165 b 781 107 785 126 781 107 b 671 65 761 68 721 60 l 671 474 b 764 532 688 465 733 457 b 744 628 783 581 767 611 l 664 725 b 382 408 536 601 464 538 l 361 429 b 314 294 361 429 344 368 b 263 190 297 263 281 229 l 276 207 b 196 78 253 161 225 114 b 140 31 165 61 150 44 b 58 21 114 17 86 11 b 44 92 58 21 32 36 b 139 150 58 150 117 164 b 35 100 139 150 81 194 b 83 -21 -6 15 83 -21 b 126 -29 83 -21 99 -29 b 190 -85 131 -49 143 -81 b 265 -39 257 -89 265 -54 b 265 -33 265 -37 265 -35 b 265 -39 265 -33 265 -36 b 190 -75 263 -61 229 -86 b 147 -37 146 -62 147 -37 b 149 -25 147 -33 149 -31 b 271 35 181 -21 222 -6 b 374 35 303 39 338 39 b 550 4 443 18 501 8 l 550 -58 b 458 -171 550 -114 510 -161 l 457 -171 l 571 -275 l 719 -97 b 671 4 692 -87 671 -46 b 789 74 778 19 789 74 b 751 156 789 74 814 133 z m 426 135 b 363 129 403 133 383 132 b 428 211 385 154 404 179 b 453 188 435 206 444 197 b 485 300 453 188 464 236 b 550 413 506 333 529 372 l 550 140 b 444 138 513 140 476 139 b 426 147 433 142 426 147 z m 753 539 b 671 474 743 488 694 467 b 701 613 671 561 683 596 b 735 610 711 614 725 613 b 753 539 735 610 764 596 z m 542 447 l 542 442 l 544 440 l 544 439 b 550 414 547 431 549 422 b 515 383 546 408 533 393 b 542 447 524 406 532 425 z m 547 93 b 550 101 549 96 549 100 l 550 92 b 547 93 549 93 549 93 z m 676 129 b 676 126 676 129 676 128 b 676 129 676 126 676 128 z "},"5":{"ha":838,"x_min":0,"x_max":0,"o":"m 804 658 b 718 643 733 694 718 643 b 800 650 724 660 765 678 b 824 603 833 624 824 603 b 579 629 783 538 669 582 b 657 665 607 667 657 665 b 478 690 589 679 531 688 b 460 704 467 700 460 704 l 460 693 b 119 594 138 718 119 594 b 174 501 119 594 97 519 b 221 497 193 497 210 496 l 217 315 b 128 203 169 293 128 258 b 203 139 126 153 160 139 l 219 124 l 239 140 b 363 175 300 147 363 175 b 492 285 363 175 463 232 b 554 44 492 285 571 208 b 389 -186 536 -144 389 -186 b -1 -87 168 -276 -1 -87 b 678 17 58 -215 583 -468 b 503 301 693 161 590 253 l 506 303 b 319 433 525 474 336 438 l 321 532 b 397 589 321 560 354 585 l 389 594 b 829 567 776 432 829 567 b 804 658 829 567 865 626 z m 478 319 l 479 315 b 383 346 432 338 392 347 b 317 339 383 346 354 346 l 319 433 b 478 319 506 442 478 319 z m 372 233 l 371 233 b 321 268 350 240 331 253 l 321 269 b 315 290 317 276 315 285 l 315 325 b 472 299 413 343 472 299 b 372 233 439 264 406 246 z m 175 510 b 135 558 132 532 135 558 b 261 615 151 603 203 618 l 221 588 l 183 554 b 221 507 204 549 219 531 b 175 510 208 503 192 503 z m 217 286 l 217 229 b 167 250 185 240 167 250 z "},"6":{"ha":646,"x_min":0,"x_max":0,"o":"m 457 489 l 458 492 b 442 569 464 526 456 551 b 635 944 728 822 635 944 b 507 985 635 944 590 1035 b 463 869 418 932 457 876 b 514 974 446 890 457 954 b 590 965 569 994 590 965 b 372 692 639 867 499 761 b 389 813 347 754 389 813 b 221 617 322 740 268 676 b 193 606 203 608 193 606 b 204 594 196 601 199 597 b 61 122 -24 286 35 156 b 24 156 38 143 24 156 b 317 -6 -1 171 128 8 b 606 246 357 -7 564 40 b 457 489 618 371 532 449 z m 500 265 b 357 67 482 106 357 67 b 142 72 274 33 197 46 b 221 106 164 68 193 76 b 239 242 313 193 239 242 b 210 113 264 222 269 151 b 122 100 151 75 122 100 b 186 344 72 165 117 258 b 336 378 247 338 336 378 b 446 469 336 378 422 426 b 500 265 446 469 514 403 z m 268 429 b 369 504 304 456 338 481 b 431 483 408 500 431 483 b 253 417 372 424 306 413 b 268 429 257 421 263 426 z m 435 500 l 435 494 b 382 517 415 504 399 513 b 425 553 399 528 413 539 b 435 500 442 526 435 500 z "},"7":{"ha":900,"x_min":0,"x_max":0,"o":"m 903 650 b 799 631 817 694 799 631 b 900 642 807 651 857 672 b 928 578 938 608 928 578 b 776 550 900 533 842 532 l 767 558 l 758 551 b 608 615 713 568 650 590 b 724 658 640 661 724 658 b 501 690 638 675 565 683 b 478 706 489 700 478 706 b 476 692 478 700 478 697 b 60 569 82 722 60 569 b 126 457 60 569 33 481 b 236 504 225 432 235 494 b 128 467 233 476 182 442 b 82 525 74 493 82 525 b 621 493 214 708 594 550 l 601 483 l 543 450 b 533 449 535 450 533 449 l 538 449 l 529 447 b 628 389 599 451 701 428 b 375 260 593 389 374 365 b 640 278 376 160 600 235 l 578 4 b 269 22 567 -101 317 -18 b 528 -125 249 33 385 -83 b 381 -186 513 -169 425 -194 b 350 -174 368 -182 360 -178 l 453 -285 l 513 -260 l 513 -258 l 746 -153 b 678 -92 713 -137 690 -115 b 828 108 742 -58 807 6 b 743 306 836 194 792 260 l 753 364 b 901 435 765 411 828 440 l 851 481 b 935 536 918 499 935 536 b 903 650 935 536 978 610 z m 729 281 b 685 -1 890 181 758 -42 z m 399 297 b 571 360 468 357 529 364 b 601 278 608 357 682 343 b 399 297 510 219 382 244 z "},"8":{"ha":690,"x_min":0,"x_max":0,"o":"m 515 439 l 517 442 b 508 501 521 467 517 486 b 628 663 575 567 610 621 b 563 439 639 538 563 439 b 669 750 550 411 686 565 b 376 988 663 789 583 981 b 167 801 256 979 193 883 l 165 804 b 82 628 13 794 82 628 b 156 779 50 785 156 779 l 160 781 b 147 694 147 738 144 703 b 286 503 147 694 181 506 b 267 496 274 499 267 496 b 276 486 271 493 274 489 b 149 124 125 279 129 171 b 129 143 136 135 129 143 b 157 110 121 149 131 132 b 167 94 161 100 167 94 b 207 67 167 94 181 76 b 390 -1 254 36 318 6 b 647 222 426 -3 610 39 b 515 439 658 332 582 403 z m 553 244 b 428 67 539 101 428 67 b 250 65 360 42 296 47 b 290 92 263 68 275 76 b 308 201 367 161 308 201 b 282 97 328 188 331 129 b 213 88 235 67 213 88 b 286 314 164 149 215 236 b 408 343 339 314 408 343 b 504 425 408 343 485 385 b 553 244 504 425 565 367 z m 372 882 b 558 817 468 888 526 847 b 524 804 546 815 535 811 b 488 711 444 758 488 711 b 531 796 474 728 483 779 b 572 800 549 800 563 801 b 588 776 582 786 588 776 b 599 756 592 769 594 763 b 415 567 599 685 503 615 b 428 665 392 617 428 665 b 344 574 397 632 371 603 b 290 704 338 631 290 704 b 181 794 290 704 228 779 b 372 882 181 794 235 872 z m 260 528 b 174 776 113 661 174 776 b 260 528 306 689 260 528 z m 454 453 b 489 438 478 447 489 438 b 360 376 447 393 400 379 b 454 453 396 404 428 429 z m 496 451 l 496 449 b 465 463 486 454 475 458 b 493 486 475 471 485 479 b 496 451 499 468 496 451 z "},"9":{"ha":647,"x_min":0,"x_max":0,"o":"m 215 242 l 214 239 b 231 161 208 204 217 179 b 38 -214 -56 -92 38 -214 b 165 -254 38 -214 82 -304 b 210 -139 254 -201 215 -146 b 158 -243 226 -160 215 -224 b 82 -235 103 -264 82 -235 b 300 39 33 -136 174 -31 b 283 -82 325 -24 283 -82 b 451 114 350 -10 404 54 b 479 125 469 122 479 125 b 468 136 476 129 474 133 b 611 608 696 444 638 575 b 649 575 635 588 649 575 b 356 736 674 560 544 722 b 67 485 315 738 108 690 b 215 242 54 360 140 282 z m 172 465 b 315 664 190 625 315 664 b 531 658 399 697 475 685 b 451 625 508 663 479 654 b 433 489 360 538 433 489 b 463 618 408 508 403 579 b 550 631 521 656 550 631 b 486 386 600 565 556 472 b 336 353 425 393 336 353 b 226 261 336 353 250 304 b 172 465 226 261 158 328 z m 404 301 b 303 226 368 275 335 250 b 242 247 264 231 242 247 b 419 314 300 307 367 318 b 404 301 415 310 410 304 z m 238 231 l 238 236 b 290 214 257 226 274 218 b 247 178 274 203 260 192 b 238 231 231 204 238 231 z "}," ":{"ha":625,"x_min":0,"x_max":0,"o":""},"E":{"ha":936,"x_min":0,"x_max":0,"o":"m 300 915 b 249 879 283 914 264 903 b 260 778 200 803 260 778 b 258 875 239 789 224 839 b 317 897 293 911 317 897 b 260 617 389 842 325 717 b 225 711 217 651 225 711 b 186 558 208 657 197 606 b 44 615 121 553 67 564 b 85 668 44 615 39 640 b 183 640 132 693 179 665 b 83 678 183 640 176 708 b 31 572 0 651 31 572 b 160 488 31 572 43 513 l 158 488 b 172 482 164 486 168 483 b 208 110 153 356 135 213 b 529 19 294 -7 431 -6 l 528 15 b 758 47 636 -131 758 47 b 558 24 624 -86 558 24 l 554 26 b 649 68 607 40 643 60 b 740 347 649 68 835 242 b 547 208 656 444 547 208 b 528 39 547 208 513 96 b 360 125 528 39 444 42 b 364 133 360 128 363 131 b 329 240 394 222 340 238 l 328 240 b 329 240 328 240 328 240 b 351 136 353 235 381 182 l 350 135 b 322 478 246 265 254 321 b 408 489 349 479 376 482 b 410 475 408 482 408 478 b 429 492 410 475 417 481 b 624 532 485 500 549 513 b 536 565 624 532 567 525 b 801 614 629 626 753 682 b 688 561 818 558 715 506 b 782 549 688 561 708 506 b 368 624 975 668 639 792 b 407 797 392 699 410 757 b 846 935 436 819 763 1063 b 718 883 863 878 738 825 b 821 868 718 883 736 821 b 300 915 943 933 836 1201 z m 746 288 b 551 42 707 57 551 42 b 746 288 553 233 746 288 z "},"F":{"ha":932,"x_min":0,"x_max":0,"o":"m 824 708 b 706 756 761 682 706 725 b 825 694 706 756 704 671 b 906 819 932 717 906 819 b 460 978 906 819 890 986 b 383 1008 421 999 383 1008 b 349 1010 379 1010 367 1011 b 318 1047 339 1024 329 1036 b 451 1063 336 1069 374 1088 b 304 1061 451 1063 354 1115 b 278 1001 292 1049 282 1029 l 281 1000 b 174 953 244 992 207 976 l 172 953 b 88 817 131 924 97 881 b 289 521 76 621 253 528 b 306 518 294 521 300 519 b 218 390 251 485 218 439 b 322 251 218 336 258 288 l 322 194 b 319 167 322 183 321 174 b 299 139 313 157 306 147 b 267 144 283 135 267 144 l 285 124 b 138 51 242 79 192 53 b -131 349 22 51 -79 171 b 167 -31 -86 126 31 -32 b 338 64 229 -31 289 4 l 393 0 l 468 64 b 433 211 464 61 440 50 b 447 208 438 210 442 208 b 433 213 442 210 438 211 b 432 240 432 221 432 231 l 433 239 l 433 250 b 476 533 460 333 475 431 b 533 554 497 540 517 547 b 600 558 554 557 578 558 b 872 481 713 558 811 528 b 585 583 817 539 710 579 l 565 583 b 475 578 533 583 504 582 b 465 696 474 618 471 658 b 486 689 476 694 486 689 l 461 718 b 439 815 456 751 447 785 b 454 819 444 817 449 818 b 551 842 496 803 539 797 b 882 769 696 868 851 871 b 824 708 882 769 886 733 z m 271 600 b 189 813 271 600 165 664 b 236 935 197 868 217 907 b 289 772 274 914 308 869 l 285 769 b 289 771 286 769 288 771 l 289 769 l 292 771 b 321 593 300 767 317 740 l 319 594 b 321 571 319 594 321 586 b 271 600 304 578 288 588 z m 268 372 b 321 474 268 410 288 444 b 322 271 321 408 322 332 b 268 372 288 300 268 335 z m 304 992 b 344 997 304 992 319 997 b 358 974 350 990 354 982 b 318 969 344 972 331 971 b 304 992 313 976 308 983 z m 432 978 b 372 974 413 976 393 975 b 357 997 367 982 363 990 b 432 978 378 997 404 992 z m 303 1007 b 317 1044 303 1007 303 1026 b 339 1010 324 1033 332 1022 b 300 1004 326 1008 314 1007 z m 422 763 l 389 801 b 413 808 396 804 404 807 b 422 763 417 794 419 779 z m 432 569 b 431 639 431 599 431 622 b 433 663 431 647 432 656 b 435 608 433 644 435 626 l 435 569 z m 286 983 b 292 968 288 978 289 974 l 263 964 b 286 983 276 978 286 983 z "},"G":{"ha":1086,"x_min":0,"x_max":0,"o":"m 1043 426 b 868 314 1043 426 975 354 b 913 554 872 575 908 557 l 821 632 l 665 454 b 731 339 728 458 729 424 b 732 283 731 322 731 304 b 463 392 631 283 532 322 b 486 440 472 404 479 419 b 429 554 508 556 429 554 b 472 440 457 554 494 503 b 454 406 468 425 458 415 b 385 586 419 449 392 506 b 458 869 367 778 458 869 b 596 749 486 822 561 771 b 597 557 611 696 613 629 b 628 733 615 617 628 679 b 890 772 683 713 892 643 b 589 942 888 939 589 942 b 556 936 582 942 572 940 b 526 956 546 944 539 951 b 996 847 694 1026 882 979 b 450 1031 894 1047 650 1131 b 332 944 404 1010 365 979 b 254 1057 253 968 254 1057 b 231 825 243 969 235 892 b 142 668 197 782 165 729 b 132 260 75 507 75 349 b 151 607 93 346 97 474 b 229 743 174 658 199 701 l 229 738 b 238 553 217 679 219 613 b 732 217 354 218 592 186 b 731 -101 732 72 731 -101 l 868 21 l 868 279 b 1043 426 996 349 1065 442 z m 843 825 b 618 804 843 825 736 772 b 572 919 613 851 596 890 b 843 825 633 929 731 918 z m 503 871 b 556 829 522 860 540 847 b 497 871 533 840 517 854 b 503 871 499 871 500 871 z m 393 867 b 404 874 399 869 401 872 b 425 879 410 876 419 876 b 392 857 415 872 404 867 b 393 867 393 860 393 860 z "},"H":{"ha":1222,"x_min":0,"x_max":0,"o":"m 1129 319 b 1192 132 1174 317 1235 229 b 1094 44 1147 35 1094 44 b 1139 976 799 143 1139 976 b 868 1171 856 924 868 1171 b 804 631 828 951 807 774 b 493 497 789 614 664 490 b 494 733 494 617 494 733 l 493 732 b 507 892 496 813 500 863 b 663 956 581 876 664 876 b 378 1115 658 1113 378 1115 b 268 1079 367 1118 322 1107 l 269 1085 b 450 1213 269 1085 240 1222 b 240 1067 450 1213 218 1268 l 242 1065 b 47 749 144 1013 32 911 b 365 431 92 539 267 454 b 364 325 364 368 364 325 l 365 325 b 324 122 360 113 331 117 l 369 83 b 250 24 335 44 293 22 b 68 260 163 28 90 128 b 265 -60 79 83 161 -54 b 440 82 335 -62 399 -6 l 556 215 b 493 272 556 215 493 174 l 493 307 b 493 365 494 326 494 346 l 493 433 b 803 622 657 471 776 585 b 1017 10 788 36 1017 10 b 1213 129 1017 10 1171 -39 b 1129 319 1258 318 1129 319 z m 186 779 b 256 1047 168 961 256 1047 b 383 935 279 1003 350 954 l 303 843 b 367 785 303 843 367 882 b 365 525 367 736 365 625 b 186 779 338 535 204 594 z m 619 1008 b 486 976 624 990 569 954 l 447 1010 l 424 981 b 278 1064 375 990 324 1014 b 619 1008 278 1064 415 1168 z "},"I":{"ha":814,"x_min":0,"x_max":0,"o":"m 569 215 b 497 221 544 219 519 221 l 518 242 b 460 294 518 242 460 206 l 463 690 b 490 697 472 690 481 692 b 536 839 542 722 544 785 b 778 960 767 863 778 960 b 713 1063 778 960 799 1046 b 610 1014 610 1083 610 1014 b 710 1051 611 1039 657 1072 b 756 1001 758 1031 756 1001 b 593 940 740 942 675 935 b 432 1004 581 979 528 1063 l 431 1001 b 168 1028 367 1049 267 1089 b 74 685 13 908 54 718 b 328 504 161 532 349 489 b 121 749 328 504 132 563 b 229 949 121 749 101 869 b 272 969 243 958 257 964 b 171 851 281 851 171 851 b 311 835 221 844 268 840 l 289 810 b 344 756 289 810 344 846 l 344 340 b 326 171 342 240 333 194 b 246 64 283 144 254 107 b 450 -165 229 -33 318 -129 b 307 36 351 -126 290 -46 b 351 121 311 68 328 97 l 389 92 l 460 172 b 601 179 501 186 550 189 b 814 51 700 165 781 113 b 569 215 785 131 689 197 z m 451 1004 b 583 944 451 1004 524 1060 b 499 954 556 946 525 950 b 447 1003 490 965 472 983 z m 511 754 b 467 806 511 754 489 774 b 471 839 467 819 468 825 l 519 840 b 511 754 519 814 518 792 z m 424 1001 b 410 972 418 993 414 983 b 315 1001 375 982 340 992 b 424 1001 382 1017 424 1001 z m 479 958 b 432 967 463 961 447 964 b 440 992 435 975 436 982 b 479 958 440 992 460 982 z "},"J":{"ha":864,"x_min":0,"x_max":0,"o":"m 528 679 b 556 686 535 679 544 681 b 599 825 606 713 610 772 b 840 951 831 849 840 951 b 775 1053 840 951 864 1036 b 676 1003 676 1074 676 1003 b 774 1043 678 1028 725 1063 b 821 990 825 1021 821 990 b 651 921 804 932 735 918 b 499 992 638 960 594 1053 l 499 990 b 233 1018 433 1038 333 1078 b 140 675 81 901 122 707 b 393 496 228 524 417 481 b 189 740 393 496 200 553 b 297 940 189 740 169 861 b 340 960 313 947 325 956 b 236 840 347 840 236 840 b 378 825 288 832 336 828 l 356 800 b 414 747 356 800 414 835 l 414 743 b 353 796 394 765 375 782 b 375 151 465 636 408 218 l 396 135 b 304 90 369 110 339 93 b 76 324 208 82 118 181 b 333 3 113 132 217 -6 b 469 106 388 8 435 43 l 583 235 b 526 282 583 235 528 200 z m 517 979 b 649 922 517 979 589 1035 b 565 931 621 924 592 926 b 513 979 556 942 536 960 z m 576 732 b 531 781 576 732 553 747 b 535 821 532 797 533 810 b 585 822 553 822 568 822 b 576 732 586 797 585 767 z m 489 976 b 476 950 483 969 481 958 b 383 976 439 957 408 968 b 489 976 447 990 489 976 z m 544 935 b 500 943 529 938 513 942 b 507 968 501 951 503 958 b 544 935 507 968 525 957 z "},"K":{"ha":1088,"x_min":0,"x_max":0,"o":"m 364 372 b 410 418 364 389 403 403 b 964 -17 767 -140 964 -17 b 1028 160 964 -17 1088 32 b 878 239 961 303 878 239 b 1014 151 907 260 992 235 b 996 46 1035 67 996 46 b 572 586 807 -26 635 407 b 760 1078 890 949 760 1078 b 589 1099 760 1078 690 1179 b 550 947 475 1008 550 947 b 600 1088 525 971 529 1051 b 699 1094 671 1125 699 1094 b 608 840 747 1021 693 928 b 456 888 585 886 540 928 l 456 885 b 146 953 383 950 269 1013 b -11 554 -54 831 -28 594 b 228 313 47 421 165 343 b 208 93 232 219 219 108 b 147 74 189 82 169 75 b -53 288 61 69 -18 158 b 171 -6 -26 117 67 -11 b 247 24 199 -4 224 7 l 275 0 l 421 168 b 364 372 364 132 364 189 z m 54 625 b 208 849 54 625 47 772 b 211 850 210 850 210 850 l 167 799 b 231 740 167 799 231 839 l 231 694 l 214 707 l 231 690 b 228 324 229 589 229 407 b 54 625 165 363 47 458 z m 388 717 b 388 660 388 717 385 692 b 358 640 378 653 368 646 l 358 688 b 383 883 361 814 372 864 b 443 868 422 879 443 868 b 388 717 406 826 388 717 z m 464 856 b 525 764 464 856 504 828 b 442 699 499 740 469 718 b 464 856 432 744 433 797 z m 478 868 b 600 831 478 868 546 910 b 539 775 581 813 560 793 b 535 789 536 783 535 789 b 474 868 532 797 510 831 z "},"L":{"ha":890,"x_min":0,"x_max":0,"o":"m 774 282 b 654 221 653 306 654 221 b 772 268 654 251 710 294 b 829 207 835 243 829 207 b 500 135 800 106 644 108 b 403 157 488 179 444 174 b 338 175 379 163 357 169 l 435 288 b 379 338 435 288 379 253 l 379 428 b 543 382 471 426 543 382 b 381 454 563 376 488 432 b 381 593 381 499 381 549 b 381 736 381 671 382 736 b 415 911 386 919 410 917 l 417 911 b 415 911 417 911 417 911 l 340 976 l 215 831 b 271 781 215 831 271 867 l 269 460 b 238 456 258 458 249 457 b 36 160 201 449 25 356 b 121 24 46 96 79 53 b 229 -24 156 0 193 -14 l 228 -25 b 400 -86 249 -167 400 -86 b 251 -31 256 -132 251 -31 l 250 -28 b 332 -32 292 -36 325 -35 b 408 -1 332 -32 369 -22 b 853 157 839 -10 853 157 b 774 282 853 157 890 258 z m 138 164 b 219 376 114 313 219 376 b 269 406 236 389 253 397 l 269 383 b 240 206 265 236 249 210 l 238 207 l 238 206 b 233 207 236 206 235 207 l 238 204 b 185 42 257 108 222 63 b 138 164 165 69 146 108 z m 253 -14 b 267 7 257 -7 261 0 b 381 0 307 3 344 1 b 253 -14 308 -36 253 -14 z m 211 13 b 240 10 221 11 231 10 b 235 -7 238 4 236 -1 b 211 13 235 -7 225 -1 z "},"M":{"ha":1129,"x_min":0,"x_max":0,"o":"m 374 856 b 457 839 425 856 457 839 b 404 701 424 804 404 701 l 404 700 b 374 574 390 660 378 617 b 404 664 381 606 392 635 b 494 511 406 600 419 483 b 538 767 610 557 538 767 b 536 772 538 769 538 771 b 589 711 554 779 589 783 l 588 268 b 547 72 582 56 553 68 l 632 1 l 771 161 b 711 218 771 161 711 124 b 710 333 711 253 711 293 b 753 858 708 542 706 803 l 668 931 l 590 839 b 551 869 578 851 568 863 b 713 940 600 910 657 936 b 1006 436 899 950 1028 724 b 800 -26 992 242 908 69 b 1063 514 936 65 1044 276 b 757 1071 1088 829 950 1082 b 481 863 651 1065 554 982 l 468 858 l 468 856 b 378 914 440 878 414 900 b 413 988 389 994 407 990 b 414 988 414 988 414 988 l 321 1072 l 196 924 b 183 918 192 921 188 919 b 40 551 0 806 24 590 b 233 347 85 447 172 381 l 233 339 l 235 340 b 189 81 226 104 193 78 l 200 72 b 185 71 194 71 189 71 b 3 265 106 67 33 147 b 207 -3 25 110 111 -7 b 265 17 226 -1 246 6 l 281 3 l 436 179 b 361 668 329 175 350 494 b 365 771 365 719 367 757 z m 100 617 b 235 819 100 617 94 749 b 233 358 235 715 233 432 b 100 617 174 403 94 485 z m 524 558 b 450 751 524 558 440 640 b 493 808 465 772 479 793 b 524 558 524 776 571 700 z m 578 828 l 535 775 b 503 819 529 786 517 804 b 531 849 510 831 521 839 b 578 828 544 849 564 843 z "},"N":{"ha":1042,"x_min":0,"x_max":0,"o":"m 1025 311 b 751 113 944 196 843 121 b 750 125 751 117 750 121 b 643 221 728 254 643 221 b 736 121 672 231 738 193 l 736 111 b 667 124 711 111 688 115 b 536 385 582 158 538 258 b 611 325 583 367 611 325 b 542 461 588 375 564 419 b 594 657 549 524 567 590 b 881 978 663 818 774 936 b 531 613 753 950 613 808 b 501 532 518 585 508 558 b 467 588 489 551 476 571 b 465 626 465 613 465 626 b 447 617 460 622 453 619 b -22 964 157 1065 -22 964 b -93 800 -22 964 -144 921 b 50 721 -33 663 50 721 b -78 808 19 703 -61 728 b -57 907 -94 886 -57 907 b 153 789 22 932 93 876 l 35 653 b 89 603 35 653 89 688 b 88 207 89 518 88 207 b 51 32 83 15 56 29 l 128 -32 l 251 113 b 197 161 251 113 194 78 l 199 558 b 210 693 200 625 206 667 b 246 617 222 668 236 642 b 654 -1 419 -68 654 -1 b 718 25 654 -1 689 3 b 1025 311 825 51 943 158 z "},"O":{"ha":1117,"x_min":0,"x_max":0,"o":"m 1050 689 b 978 411 1157 439 978 411 l 972 407 b 414 978 1043 744 746 1047 b 49 424 160 926 -3 676 b 160 203 67 339 107 264 b 675 -10 243 96 418 -51 b 968 371 876 43 947 226 l 972 368 b 1050 689 1222 433 1050 689 z m 722 789 b 919 518 821 733 894 638 b 928 421 926 485 929 453 b 722 789 722 518 721 742 z m 647 171 b 439 835 74 50 -29 738 b 639 825 508 849 576 844 b 725 494 469 763 725 494 b 925 381 725 494 842 397 b 647 171 901 303 826 218 z "},"P":{"ha":950,"x_min":0,"x_max":0,"o":"m 300 308 b 257 -31 293 58 261 -35 l 267 -42 b 253 -44 263 -42 258 -44 b 61 163 169 -49 94 38 b 276 -110 86 -3 175 -114 b 338 -86 299 -107 318 -101 l 356 -104 l 518 72 b 450 93 518 72 467 39 l 447 267 b 649 292 510 260 588 268 b 868 807 850 372 950 604 b 354 1025 786 1010 557 1107 b 126 786 243 979 164 890 b 306 954 164 861 224 921 b 753 764 483 1022 682 938 b 561 317 822 588 738 388 b 449 288 526 304 483 290 l 453 767 b 536 751 504 768 536 751 b 492 606 503 717 492 606 b 572 450 492 606 476 414 b 614 683 679 490 614 683 b 563 751 613 692 594 722 l 565 751 b 697 657 565 751 653 807 b 547 769 697 657 678 831 l 546 768 b 463 824 524 788 493 810 b 493 881 475 889 490 882 l 396 963 l 267 814 b 150 483 113 708 135 517 b 300 308 188 400 247 344 z m 203 546 b 301 721 203 546 197 651 l 301 714 b 300 326 301 643 301 457 b 203 546 250 371 200 442 z m 549 742 b 596 493 549 742 656 672 b 549 742 596 493 481 606 z "},"Q":{"ha":1238,"x_min":0,"x_max":0,"o":"m 1242 -253 b 1104 -181 1179 -122 1104 -181 b 1228 -261 1131 -161 1208 -185 b 1213 -358 1249 -337 1213 -358 b 846 81 1057 -417 914 -103 b 979 369 929 160 965 274 b 1061 688 1232 433 1061 688 b 989 408 1158 460 1018 418 b 983 407 986 408 983 407 l 983 410 b 981 611 989 479 994 543 b 429 975 928 864 682 1026 b 65 424 176 922 14 676 b 176 204 83 339 122 265 b 378 39 219 150 288 83 b 388 7 381 28 383 17 b 382 36 385 17 383 26 b 671 -10 461 -1 558 -25 b 850 -251 738 -114 797 -192 b 846 -265 849 -256 847 -260 b 851 -253 847 -261 850 -257 b 1183 -415 1067 -487 1183 -415 b 1242 -253 1183 -415 1296 -369 z m 454 832 b 653 822 522 846 590 842 b 738 494 483 760 738 494 b 936 381 738 494 854 399 b 776 215 926 311 871 276 b 454 399 683 363 550 442 b 356 204 393 369 360 297 b 454 832 38 379 135 764 z m 385 189 b 471 311 397 246 426 290 b 736 197 550 347 653 299 b 661 172 713 188 689 179 b 589 158 636 165 611 160 b 554 190 567 174 554 190 b 574 156 561 179 567 168 b 385 189 496 150 432 167 z m 736 788 b 932 517 833 732 907 636 b 940 421 939 485 942 453 b 736 788 735 518 733 739 z "},"R":{"ha":836,"x_min":0,"x_max":0,"o":"m 875 136 b 729 219 808 282 729 219 b 863 128 760 239 839 213 b 849 21 886 42 849 21 b 531 339 729 -24 613 158 b 742 676 592 389 736 506 b 457 1085 743 729 708 1006 b 119 926 299 1119 186 1019 l 118 929 b -49 738 -78 972 -49 738 b 99 900 -36 946 99 900 l 103 901 b 143 510 32 789 22 681 b 142 197 143 413 142 197 l 142 199 b 113 53 136 40 115 51 l 111 54 b 113 53 111 54 111 53 l 175 0 l 278 119 b 233 161 278 119 233 90 b 235 499 233 222 235 449 b 821 -40 619 -169 821 -40 b 875 136 821 -40 936 6 z m 525 349 b 408 654 453 503 408 654 b 267 575 357 588 307 569 b 243 754 275 651 243 754 b 138 910 243 754 192 874 b 413 950 138 910 235 988 b 646 739 617 908 646 739 b 525 349 703 547 586 407 z m 185 686 l 108 599 b 118 892 19 786 118 892 b 185 686 179 821 189 747 z m 138 544 b 111 590 128 563 118 576 b 143 551 126 594 139 589 b 138 544 139 547 138 544 z "},"S":{"ha":839,"x_min":0,"x_max":0,"o":"m 657 492 b 524 676 735 653 524 676 b 636 514 703 621 636 514 l 636 510 b 556 572 599 547 565 571 b 318 578 556 572 404 625 b 214 807 178 689 178 763 b 739 764 375 850 699 918 b 676 701 739 764 743 726 b 556 754 613 676 556 724 b 678 688 556 754 553 667 b 764 815 790 707 764 815 b 8 974 764 815 750 1058 b 125 781 8 974 171 969 b 196 801 125 781 153 790 b 267 515 132 746 101 654 b 390 422 249 451 324 429 b 557 149 525 311 574 219 b 383 74 478 68 383 74 b 53 294 149 64 53 294 b 311 6 31 322 108 94 b 722 168 351 -12 596 -40 b 654 490 783 297 721 415 z m 624 499 b 468 475 567 469 514 467 b 438 496 458 482 449 489 b 340 561 400 518 368 540 b 624 499 544 619 624 499 z m 533 429 b 636 479 569 439 613 457 b 642 307 636 479 669 411 b 533 429 624 344 590 385 z "},"T":{"ha":860,"x_min":0,"x_max":0,"o":"m 763 1047 b 656 994 654 1069 656 994 b 761 1036 656 1019 706 1058 b 811 981 817 1013 811 981 b 628 904 793 917 717 899 b 463 983 614 947 567 1047 l 463 981 b 178 1010 390 1031 282 1075 b 75 639 10 881 56 675 b 347 444 171 474 374 428 b 126 710 347 444 140 507 b 243 924 126 710 106 839 b 289 947 260 933 275 940 b 179 818 299 818 179 818 b 332 801 235 811 285 804 l 308 775 b 369 717 308 775 369 814 b 368 269 369 622 368 269 l 368 271 b 328 71 363 53 332 68 l 414 -1 l 554 163 b 492 218 554 163 492 124 l 494 644 b 524 653 504 644 514 646 b 574 800 581 679 583 744 b 833 936 824 826 833 936 b 763 1047 833 936 857 1029 z m 483 968 b 625 904 483 968 563 1028 b 533 915 594 906 564 910 b 481 967 524 928 504 947 z m 546 699 b 499 753 546 699 522 718 b 503 796 500 769 501 783 b 556 799 522 796 539 797 b 546 699 557 771 556 736 z m 453 964 b 438 936 446 957 443 946 b 338 964 399 944 363 956 b 453 964 406 981 453 964 z m 513 918 b 464 929 496 921 479 925 b 471 956 465 936 468 946 b 513 918 471 956 492 944 z "},"U":{"ha":1049,"x_min":0,"x_max":0,"o":"m 319 203 b 433 304 374 233 433 304 b 450 556 433 304 583 533 b 292 438 372 568 322 503 b 438 882 279 633 296 863 b 501 800 438 882 482 881 b 422 664 522 719 460 660 b 518 799 422 664 526 647 b 381 919 513 935 381 919 b 83 99 381 919 101 938 l 83 97 b 82 61 82 85 81 75 l 82 47 b 83 54 82 47 83 50 b 213 -135 94 -7 140 -78 b 144 90 138 -60 106 31 b 289 142 171 131 225 149 b 538 -54 329 50 404 -44 b 586 -50 554 -54 571 -53 b 613 -117 600 -72 608 -96 b 594 -49 611 -96 606 -72 b 733 4 649 -40 694 -21 l 826 -74 l 985 108 b 915 172 985 108 915 65 b 917 382 915 213 915 296 b 917 674 917 522 918 675 b 961 894 922 906 954 900 l 867 975 l 708 793 b 778 731 708 793 778 838 l 778 639 b 776 635 776 639 775 639 l 778 633 b 775 228 776 476 775 228 l 776 229 b 775 167 776 206 775 186 b 533 79 736 125 661 69 b 319 203 517 81 344 97 z m 393 503 b 314 215 393 503 444 328 b 294 376 308 258 300 315 b 393 503 314 415 344 458 z "},"V":{"ha":1301,"x_min":0,"x_max":0,"o":"m 1096 1021 b 619 563 1096 1021 900 1150 b 551 603 582 588 551 603 b 435 617 542 608 494 618 l 439 621 b 657 661 439 621 468 758 b 424 660 657 661 499 783 b 422 668 424 663 422 665 l 410 760 b 428 985 388 1001 424 988 l 325 1054 l 203 872 b 94 676 154 835 114 763 b 257 838 128 774 192 840 b 267 800 261 828 265 817 b 290 594 271 760 281 679 b 97 413 208 568 132 514 b 303 -43 36 146 256 -25 b 739 -17 536 -131 778 -11 b 297 69 739 -17 481 -124 b 236 381 297 69 168 183 b 301 504 253 432 276 474 b 317 363 307 449 313 399 b 283 329 306 350 296 338 b 318 354 296 335 307 344 b 324 301 322 322 324 301 l 325 303 b 306 78 347 63 311 75 l 411 10 l 457 79 b 708 -3 500 103 576 100 b 1163 936 708 -3 807 997 b 1215 797 1163 936 1224 915 b 1050 646 1208 679 1099 624 b 1238 789 1050 646 1183 579 b 1096 1021 1286 976 1096 1021 z m 613 546 b 565 444 596 514 582 479 b 438 599 515 472 464 518 b 613 546 438 599 519 615 z m 490 421 b 538 376 490 421 510 400 b 479 222 519 328 499 278 b 469 263 475 232 471 246 b 442 503 463 308 453 406 b 490 421 463 458 490 421 z "},"W":{"ha":1114,"x_min":0,"x_max":0,"o":"m 769 1213 b 315 786 599 1250 408 1065 b 707 1088 410 992 565 1118 b 907 461 888 1047 976 767 b 751 124 876 326 821 210 b 711 175 736 119 711 121 b 714 547 711 254 714 547 l 713 546 b 715 613 713 572 714 593 b 810 688 738 606 782 604 b 742 811 840 786 742 811 b 417 532 742 811 603 874 b 272 517 381 553 311 579 l 272 522 b 276 749 232 753 272 751 l 201 799 l 114 668 b 38 528 81 640 51 590 b 154 644 61 597 107 646 b 160 617 157 638 158 628 b 178 469 164 588 171 531 b 39 339 119 450 64 413 b 186 14 -4 149 153 26 b 499 33 354 -50 526 36 b 333 14 499 33 422 1 b 560 518 394 40 501 142 b 603 629 572 557 586 594 b 610 589 607 621 610 608 b 608 217 610 510 608 217 l 610 218 b 575 54 604 39 579 51 l 646 -6 l 696 51 b 975 529 817 136 925 313 b 769 1213 1051 864 958 1169 z m 182 94 b 138 317 182 94 90 175 b 185 404 151 354 168 382 b 197 304 189 365 193 329 b 172 279 189 294 181 286 b 197 299 181 285 189 290 b 201 260 200 275 201 260 l 203 261 b 189 100 218 89 193 97 l 203 90 b 204 74 203 85 203 79 b 182 94 197 79 189 86 z m 260 36 b 228 56 249 42 239 49 b 218 82 224 61 219 69 l 264 51 l 360 193 b 306 232 360 193 314 157 b 351 315 300 271 300 294 b 388 286 361 307 374 296 b 260 36 376 168 344 44 z m 772 769 b 797 693 772 769 804 757 b 715 614 792 638 744 611 b 746 711 724 722 743 713 l 696 753 b 772 769 719 769 744 775 z m 283 488 b 414 528 283 488 303 574 b 401 504 410 521 406 513 b 388 510 397 506 393 508 b 390 481 388 510 389 500 b 382 465 388 476 385 471 b 364 475 371 472 364 475 b 281 485 357 479 324 486 z m 282 472 b 376 454 282 472 325 481 b 344 382 365 432 354 407 b 282 472 318 403 296 432 z m 321 346 b 326 340 321 346 322 343 b 300 275 317 319 308 299 b 285 404 296 311 290 357 b 321 346 301 372 321 346 z "},"X":{"ha":1106,"x_min":0,"x_max":0,"o":"m 1014 174 b 872 257 960 314 872 257 b 1000 165 904 276 985 247 b 974 65 1014 83 974 65 b 683 358 850 29 750 192 b 790 288 751 349 790 288 b 583 679 717 456 643 574 b 579 676 582 679 581 678 b 465 822 539 736 501 783 b 535 896 472 836 494 871 b 544 849 532 883 533 867 b 621 821 582 785 621 821 b 551 854 607 808 564 815 b 556 904 538 892 556 904 b 736 767 619 936 689 849 b 739 583 728 751 644 590 b 850 686 797 578 831 635 b 929 665 894 703 929 665 b 867 751 907 697 886 726 b 869 769 868 763 869 769 b 853 849 871 778 867 810 l 856 847 b 932 713 856 847 953 858 b 846 869 932 713 985 871 l 844 868 b 640 1024 814 940 753 1025 b 418 868 521 1011 453 933 b 169 964 263 1008 169 964 b 92 794 169 964 44 921 b 233 711 147 654 233 711 b 107 803 203 692 121 721 b 132 903 93 885 132 903 b 424 610 257 939 356 776 b 315 681 356 619 315 681 b 524 289 390 513 464 394 b 526 292 525 289 525 290 b 642 146 568 232 606 185 b 571 72 633 132 613 97 b 563 119 575 85 574 101 b 486 147 524 183 486 147 b 556 114 500 160 542 153 b 551 64 569 76 551 64 b 371 201 486 32 418 119 b 372 206 371 203 372 204 b 368 385 388 235 456 378 b 257 282 308 389 275 333 b 178 303 211 265 178 303 b 240 217 199 271 219 242 b 238 199 238 206 238 199 b 254 119 235 190 240 158 l 251 121 b 175 256 251 121 154 110 b 260 99 175 256 121 97 l 261 100 b 465 -56 292 28 354 -57 b 689 100 585 -43 654 35 b 938 8 843 -40 938 8 b 1014 174 938 8 1063 47 z m 831 858 b 794 835 818 854 807 844 b 679 925 749 881 711 908 b 831 858 785 917 831 858 z m 276 110 b 313 133 288 114 300 124 b 428 43 357 88 396 60 b 276 110 322 51 276 110 z m 329 358 b 340 258 329 358 346 314 b 310 326 321 297 310 326 b 281 296 300 313 290 303 b 329 358 292 315 308 338 z m 778 610 b 767 710 778 610 761 654 b 797 642 786 671 797 642 b 826 672 807 656 817 665 b 778 610 814 653 799 631 z m 856 765 b 811 817 840 785 825 801 b 840 843 819 825 829 835 b 856 765 840 843 858 813 z m 251 203 b 294 151 267 183 281 167 b 267 125 286 143 278 133 b 251 203 267 125 249 156 z "},"Y":{"ha":831,"x_min":0,"x_max":0,"o":"m 567 -19 b 606 -260 596 -57 653 -154 b 453 -365 606 -260 574 -354 b 294 -317 346 -372 294 -317 b 368 -233 331 -300 368 -233 b 357 -82 368 -233 442 -82 b 256 -243 264 -82 256 -243 b 276 -308 256 -251 263 -279 l 275 -307 b 199 -200 275 -307 193 -326 b 282 -329 199 -200 167 -337 l 283 -328 b 467 -446 315 -385 372 -453 b 668 -229 625 -417 669 -260 b 569 -18 661 -131 604 -51 b 700 88 615 6 669 36 l 794 219 b 726 282 794 219 726 174 l 726 775 b 772 993 733 1007 768 996 l 681 1072 l 524 896 b 593 832 524 896 593 939 l 593 614 b 571 567 585 599 576 579 b 524 579 543 576 524 579 b 567 560 538 575 557 567 b 521 492 556 531 538 510 b 451 504 506 496 476 504 b 115 963 294 1018 115 963 b 42 853 115 963 21 949 b 128 774 57 758 114 769 b 131 775 129 774 129 775 b 128 774 131 775 129 775 b 51 858 104 768 51 799 b 85 924 51 918 85 924 b 269 628 189 939 243 772 b 242 646 258 636 250 642 b 269 618 251 639 263 631 b 283 483 276 567 282 517 b 256 458 276 472 271 463 b 189 510 232 454 204 472 b 269 436 204 463 239 429 b 272 438 271 436 271 436 b 271 435 272 436 271 435 b 229 357 210 431 229 357 b 269 426 222 419 256 426 b 271 408 269 419 269 414 b 264 386 264 400 264 389 b 326 288 264 386 271 286 b 340 356 357 288 349 328 b 469 342 399 340 469 342 l 485 342 b 443 242 479 285 443 242 b 506 344 436 233 486 279 b 589 369 528 350 561 357 l 589 326 b 546 118 582 103 553 114 l 544 119 b 546 118 544 119 544 119 l 560 108 b 510 64 542 89 528 72 b 340 242 467 124 410 186 b 32 329 189 371 49 408 b 71 190 22 297 40 247 b 292 -43 103 126 174 15 b 567 -19 319 -57 451 -74 z m 364 18 b 89 269 225 13 58 138 b 372 194 106 343 232 308 b 506 58 422 150 467 103 b 364 18 433 11 364 18 z m 283 -301 b 326 -106 283 -301 226 -222 b 283 -301 326 -106 379 -222 z m 510 388 b 506 404 508 393 507 400 b 553 458 521 419 538 436 b 589 431 569 453 582 442 l 589 400 b 510 388 561 389 532 386 z m 304 301 b 274 400 271 344 269 381 b 310 368 278 386 292 374 b 304 301 319 329 304 301 z m 510 475 b 475 456 500 469 488 463 b 460 472 472 463 467 467 b 456 489 458 475 457 485 b 510 475 475 489 494 485 z m 589 453 b 561 472 578 463 569 468 b 589 522 571 489 582 504 z m 379 458 b 436 442 403 458 422 453 l 403 442 b 363 458 390 443 378 453 z "},"Z":{"ha":1144,"x_min":0,"x_max":0,"o":"m 1049 819 b 1015 940 1049 819 1096 897 b 904 918 924 988 904 918 b 1011 929 911 942 967 964 b 1042 865 1054 893 1042 865 b 721 901 988 779 839 838 b 824 949 757 953 824 949 b 589 985 735 967 657 978 b 565 1001 574 994 565 1001 b 563 986 565 996 564 992 b 119 858 143 1019 119 858 b 189 736 119 858 89 763 b 307 788 303 707 307 788 b 192 749 304 760 250 721 b 167 764 182 754 174 758 b 650 672 328 856 557 847 b 422 446 592 614 482 506 b 224 444 358 482 240 536 b 283 321 214 392 243 351 b 226 304 233 285 228 300 l 233 233 b 104 167 126 222 104 167 b 138 46 104 167 57 89 b 249 68 229 -1 249 68 b 142 57 242 44 186 22 b 111 121 99 93 111 121 b 432 83 165 207 314 149 b 329 36 396 33 329 36 b 564 1 418 19 496 8 b 588 -15 579 -8 588 -15 b 590 0 588 -10 589 -6 b 1033 126 1010 -33 1033 126 b 964 250 1033 126 1064 224 b 846 199 850 279 846 199 b 961 238 849 226 903 265 b 1013 176 1019 210 1013 176 b 543 182 979 78 825 92 b 575 263 560 199 571 222 b 806 508 669 294 792 364 b 783 638 806 557 797 600 b 879 686 867 710 878 692 l 874 750 b 1049 819 1021 749 1049 819 z m 567 288 b 511 372 558 314 535 347 b 681 540 568 428 636 496 b 678 508 681 529 679 519 b 567 288 661 347 567 288 z m 163 767 b 140 810 136 789 140 810 b 426 868 169 899 300 896 b 163 767 299 856 194 793 z m 547 257 b 515 190 547 257 547 217 l 429 214 l 433 215 b 407 261 433 215 392 225 b 446 250 431 254 446 250 b 547 257 456 247 497 247 z m 544 276 b 415 275 544 276 490 253 b 431 292 419 281 424 286 b 483 344 443 304 461 324 b 544 276 506 328 526 306 z m 251 392 b 369 393 251 392 304 404 b 304 338 343 369 322 351 b 251 392 288 351 269 369 z "},"a":{"ha":583,"x_min":0,"x_max":0,"o":"m 369 63 l 371 61 l 421 19 l 507 117 b 471 153 507 117 471 93 l 471 263 b 557 272 504 242 542 235 b 471 429 586 338 519 397 b 476 503 471 463 472 485 b 500 492 482 501 492 494 b 476 506 500 492 492 499 b 493 543 482 550 492 544 l 456 579 b 513 603 472 585 493 594 b 411 694 513 603 418 578 b 50 590 411 694 117 481 b 72 638 50 590 40 613 b 153 632 106 664 147 649 b 71 646 153 632 138 682 b 42 557 7 614 42 557 b 425 567 42 557 89 438 l 392 528 b 329 463 365 524 342 504 l 331 461 b 122 322 254 456 156 426 b 261 18 82 144 229 31 b 556 35 418 -42 582 38 b 257 93 556 35 381 -37 b 214 303 257 93 169 169 b 332 444 254 417 332 444 b 386 332 336 401 386 332 b 393 322 386 332 389 329 l 393 183 b 371 61 392 72 376 60 z m 471 413 b 546 317 496 393 522 364 b 471 332 547 303 513 281 z m 393 378 b 351 449 378 396 361 418 b 394 449 351 449 368 453 z m 351 463 b 365 493 351 463 354 478 b 393 460 378 493 392 493 b 350 463 382 461 365 463 z "},"b":{"ha":751,"x_min":0,"x_max":0,"o":"m 574 508 l 576 508 b 407 622 593 667 407 622 b 551 521 576 631 551 521 l 551 518 b 465 546 510 538 474 549 b 365 533 465 546 417 546 b 365 638 365 571 365 607 b 365 718 365 685 367 718 b 385 889 367 817 376 865 b 421 917 394 897 407 908 b 403 910 421 917 414 913 l 322 981 l 264 910 b 46 819 197 849 94 769 b 57 861 46 819 35 833 b 124 869 79 889 115 885 b 53 868 124 869 103 910 b 47 788 10 832 47 788 b 242 804 47 788 86 729 b 246 767 244 794 246 782 l 244 443 l 244 333 b 206 142 240 133 213 138 l 289 72 l 425 229 b 365 285 425 229 365 190 l 365 369 b 447 394 410 378 447 394 b 564 492 447 394 538 447 b 619 281 564 492 633 422 b 471 76 601 114 471 76 b 126 164 278 -3 126 164 b 431 -3 101 181 236 11 b 726 257 471 -6 682 43 b 574 508 740 383 653 464 z m 365 438 l 365 514 b 546 506 475 557 546 506 b 365 438 486 444 418 432 z "},"c":{"ha":807,"x_min":0,"x_max":0,"o":"m 304 393 b 311 386 307 392 308 389 b 315 404 311 386 314 393 b 610 525 346 518 417 525 l 610 524 b 715 500 617 510 636 467 b 758 613 796 533 758 613 b 442 672 758 613 725 724 l 440 672 b 381 663 431 674 410 678 b 378 660 379 663 379 660 b 314 692 375 672 364 699 b 264 632 265 683 261 647 b 156 593 229 621 194 606 b 268 531 156 593 239 613 b 214 422 251 504 232 465 b 204 403 211 417 208 408 b 44 289 161 331 100 260 b 40 336 44 289 26 300 b 107 369 54 374 93 381 b 35 343 107 369 71 403 b 57 260 1 286 57 260 b 183 282 57 260 97 228 b 190 243 183 268 185 257 b 526 6 215 85 368 -22 b 728 142 613 19 685 72 b 572 50 689 97 636 61 b 279 257 433 26 303 119 b 286 372 271 296 274 335 b 304 393 292 378 299 385 z m 747 568 b 713 511 747 568 757 542 b 610 524 668 482 619 503 b 610 525 610 525 610 525 l 640 525 b 682 500 656 519 669 511 b 651 525 674 510 661 519 b 672 526 657 526 664 526 b 606 610 672 526 597 531 b 747 568 671 621 725 614 z m 281 653 b 315 682 281 653 279 669 b 376 660 343 694 371 675 b 285 638 349 656 319 647 b 281 653 283 642 281 647 z "},"d":{"ha":679,"x_min":0,"x_max":0,"o":"m 632 167 b 292 82 632 167 485 4 b 133 286 292 82 150 124 b 204 529 118 426 204 529 b 315 439 228 483 315 439 b 397 414 315 439 356 422 l 397 285 b 340 231 397 193 340 231 l 474 76 l 554 146 b 556 146 556 146 556 146 l 554 146 b 515 333 549 140 522 136 b 515 664 517 417 515 561 b 515 758 515 703 515 736 b 574 814 515 850 574 814 l 525 871 b 551 882 533 875 542 879 b 515 879 551 882 536 878 l 446 961 l 446 974 b 79 868 446 974 149 757 b 103 917 79 868 69 890 b 186 910 138 943 179 926 b 101 925 186 910 171 961 b 72 833 38 893 72 833 b 393 819 72 833 114 731 b 397 713 394 792 397 757 l 397 576 b 299 588 347 588 299 588 b 215 561 292 590 257 579 l 215 564 b 356 664 215 564 192 671 b 192 550 356 664 175 706 l 193 546 b 43 300 118 506 31 426 b 333 4 46 60 294 1 b 632 167 526 18 658 183 z m 397 557 l 397 481 b 221 546 347 476 279 486 b 397 557 221 546 289 599 z "},"e":{"ha":793,"x_min":0,"x_max":0,"o":"m 738 618 b 635 590 646 656 635 590 b 735 608 639 613 689 638 b 771 549 781 576 771 549 b 724 510 760 529 743 517 l 725 539 l 690 536 l 690 535 l 653 531 b 613 631 628 539 594 564 b 482 601 613 631 551 613 l 482 603 b 447 671 499 657 447 671 b 378 657 447 671 421 682 b 315 689 376 671 368 697 b 267 622 256 681 267 622 b 290 579 267 622 267 603 b 178 524 260 506 178 524 b 254 499 204 515 229 506 b 217 421 242 475 228 449 b 207 400 215 415 210 407 b 46 286 163 328 100 260 b 42 335 46 286 28 297 b 106 369 54 368 90 378 b 110 367 108 368 110 367 b 106 369 108 368 107 368 b 36 340 96 376 65 389 b 60 256 3 285 60 256 b 185 279 60 256 99 225 b 190 240 185 267 186 254 b 528 1 218 82 369 -25 b 728 142 615 18 686 71 b 572 47 690 93 638 60 b 318 157 471 32 372 75 l 369 163 l 413 169 b 435 232 407 188 413 213 l 626 432 b 781 506 761 442 781 506 b 738 618 781 506 819 582 z m 360 254 b 283 240 339 232 307 228 b 281 253 282 244 281 249 b 289 369 272 294 275 333 b 306 390 293 375 299 383 b 313 383 307 388 311 385 b 317 401 313 383 314 392 b 394 521 332 422 375 499 b 503 501 408 486 458 494 b 567 458 551 508 593 515 z m 281 650 b 315 681 281 650 279 669 b 378 657 347 694 374 674 b 340 625 368 651 354 640 b 301 649 317 639 301 649 b 299 619 301 638 300 626 b 281 650 290 626 283 636 z m 463 649 b 475 608 463 649 481 642 l 475 600 b 397 596 450 599 422 596 b 383 601 393 597 388 600 b 463 649 404 635 431 656 z "},"f":{"ha":922,"x_min":0,"x_max":0,"o":"m 442 972 l 250 761 b 313 696 276 750 303 725 l 315 693 b 322 651 319 681 322 665 l 322 536 b 218 450 215 503 218 450 b 267 386 218 450 207 393 b 322 406 300 385 315 396 l 322 160 b 286 147 310 160 297 156 b 319 29 238 117 282 64 b 228 -69 315 -19 276 -60 l 225 -69 l 342 -179 l 446 -57 l 464 -35 b 483 -35 471 -37 478 -37 b 365 -172 483 -35 469 -114 b 160 -165 246 -237 160 -165 b 60 107 17 -69 60 107 b 89 -174 60 133 7 -35 b 400 -256 104 -203 236 -325 b 499 -37 492 -207 506 -110 l 500 -37 b 501 129 615 24 501 129 b 499 -15 582 19 499 -15 l 496 -17 b 493 3 496 -12 493 -3 l 496 4 l 492 4 b 475 54 485 32 479 50 b 446 90 475 54 464 69 b 444 113 444 97 444 104 l 444 472 b 738 511 718 413 738 511 b 707 576 738 511 758 560 b 650 557 660 592 651 565 b 650 554 650 556 650 556 b 650 557 650 554 650 556 b 707 569 653 569 681 583 b 729 535 735 554 729 535 b 549 528 707 485 621 503 b 601 564 563 560 601 564 b 468 561 549 567 506 564 l 451 569 b 454 560 454 567 454 564 l 444 560 l 444 775 b 508 876 444 838 472 876 b 522 875 514 876 518 876 b 878 744 804 638 878 744 b 881 825 878 744 922 783 b 811 832 840 864 817 839 l 810 831 b 811 832 810 831 810 831 b 875 818 821 844 856 849 b 883 775 894 790 883 775 b 618 933 799 703 618 933 b 525 876 592 864 547 868 z m 265 396 b 233 422 231 406 233 422 b 322 479 239 460 276 478 l 322 410 b 265 396 313 399 292 386 z m 479 14 b 449 68 465 25 456 44 b 479 14 465 50 475 29 z m 483 -19 b 478 -17 482 -19 479 -17 l 483 -10 z "},"g":{"ha":690,"x_min":0,"x_max":0,"o":"m 600 675 b 511 710 593 683 557 710 b 444 686 492 710 463 704 b 431 689 435 688 431 689 b 442 685 435 688 438 686 b 418 626 426 667 419 644 b 297 656 379 646 338 656 b 31 390 165 656 31 547 b 438 143 31 179 267 72 b 475 82 469 125 475 99 b 474 69 475 75 474 69 l 474 65 b 396 93 425 94 407 93 b 392 93 394 93 393 93 b 217 -4 349 93 217 86 b 278 -47 217 -37 244 -47 b 382 -28 325 -47 382 -28 b 481 44 382 -28 457 8 b 540 -97 481 44 540 -7 b 349 -329 540 -268 426 -329 b 110 -199 260 -329 164 -271 b 392 -412 165 -351 281 -412 b 644 -200 522 -412 644 -326 b 489 56 644 -125 601 -36 l 492 57 b 493 81 493 65 493 74 b 454 149 493 117 478 138 b 619 358 519 174 619 243 b 540 538 619 431 581 494 l 543 539 b 556 590 551 558 556 575 b 496 669 556 632 526 656 b 529 676 508 674 519 676 b 628 560 619 676 628 578 l 628 549 b 631 571 629 549 631 557 b 600 675 631 597 625 639 z m 238 561 b 229 529 233 549 229 540 b 375 467 229 475 324 467 b 407 468 393 467 407 468 b 510 503 407 468 468 481 b 513 501 511 503 511 501 b 522 503 515 501 519 503 b 310 228 579 346 465 228 b 238 561 94 228 79 478 z m 244 35 b 379 82 299 71 344 82 b 467 56 435 82 467 56 b 347 8 428 19 385 8 b 244 35 289 8 244 35 z m 276 588 b 335 596 296 593 315 596 b 414 582 361 596 388 592 b 401 558 406 574 401 565 b 424 519 401 542 415 526 b 267 583 332 519 267 581 b 276 588 269 585 272 586 z m 525 558 l 525 554 b 463 600 514 576 476 594 b 458 603 460 601 458 603 b 447 608 457 603 453 606 b 436 615 444 611 440 614 b 486 664 443 629 460 650 b 535 594 525 642 535 615 b 525 558 535 574 525 558 z m 426 519 b 410 556 414 535 410 546 b 425 578 410 575 424 578 b 467 525 433 550 426 550 b 426 519 451 521 438 519 z m 431 575 b 494 535 454 567 476 551 b 476 528 488 532 482 529 b 431 575 443 543 433 565 z m 529 518 b 532 510 531 517 531 514 l 528 518 z "},"h":{"ha":707,"x_min":0,"x_max":0,"o":"m 474 638 b 372 638 436 646 403 644 b 325 700 354 646 336 663 b 204 585 325 700 269 636 l 204 724 b 240 813 204 764 219 799 l 274 817 b 281 814 276 815 278 814 l 278 817 b 471 921 478 844 471 921 b 426 971 471 921 476 968 b 379 935 372 972 379 935 b 428 964 378 947 399 971 b 457 942 457 957 457 942 b 207 896 449 861 254 888 l 200 904 l 165 864 l 32 710 b 89 651 57 699 78 678 l 90 650 l 90 647 b 96 613 93 638 96 625 l 96 610 b 42 590 83 614 65 611 b 35 507 -6 550 35 507 b 86 483 35 507 49 488 b 56 349 46 436 56 349 b 96 465 60 410 76 446 l 96 193 b 11 90 96 142 60 100 l 114 -6 l 207 101 l 246 153 l 249 153 b 297 365 365 138 297 365 b 210 493 297 365 256 464 b 436 528 210 493 289 558 b 631 353 606 492 631 353 b 501 6 690 142 501 6 b 474 638 625 46 906 504 z m 214 197 b 207 224 211 206 208 214 l 207 463 b 214 197 289 350 229 226 z m 33 539 b 46 585 33 539 21 554 b 96 604 60 603 81 607 l 96 524 b 33 539 71 519 50 522 z "},"i":{"ha":442,"x_min":0,"x_max":0,"o":"m 422 671 b 285 632 422 671 363 629 l 285 656 b 333 742 285 703 306 742 b 351 735 340 742 347 739 l 279 815 l 250 781 l 164 681 b 114 826 139 703 103 749 b 185 957 126 924 185 957 b 246 875 193 924 246 875 b 388 858 246 875 371 782 b 258 976 406 940 258 976 b 196 972 251 979 226 979 l 196 975 b 308 1021 196 975 197 1050 b 178 971 308 1021 192 1076 l 181 968 b 38 828 119 953 49 914 b 161 622 33 715 111 651 b 181 593 169 614 176 603 l 183 590 l 183 589 b 188 558 185 579 188 569 l 188 185 b 115 93 188 142 157 104 b 25 249 76 126 42 181 b 211 3 47 107 125 -1 b 368 318 306 7 376 147 b 285 564 364 422 332 511 l 285 610 b 422 671 375 625 438 675 z m 343 357 b 308 165 347 283 332 214 b 285 236 293 181 285 206 l 285 554 b 343 357 317 504 338 435 z m 371 890 b 197 963 371 890 256 863 b 371 890 197 963 285 999 z "},"j":{"ha":540,"x_min":0,"x_max":0,"o":"m 529 724 b 353 644 529 724 458 635 b 389 729 353 692 369 729 b 401 724 393 729 397 726 l 350 804 l 326 769 l 326 768 l 267 675 b 207 779 243 693 217 725 b 235 918 192 871 235 918 b 311 861 251 890 311 861 b 444 885 311 861 451 813 b 294 957 438 965 294 957 b 239 936 289 958 265 951 l 240 938 b 328 1010 240 938 221 1007 b 225 929 328 1010 208 1031 l 226 928 b 138 760 178 897 124 842 b 239 632 156 694 199 654 b 244 624 239 626 240 625 b 258 606 249 621 254 618 b 261 494 261 596 260 532 l 261 493 b 263 421 261 458 263 425 l 263 -72 b 11 -8 244 -285 40 -192 b 229 -271 33 -164 136 -278 b 292 -247 251 -269 272 -261 l 293 -249 l 296 -244 b 406 78 365 -192 394 -65 b 353 465 413 167 385 411 l 353 607 b 529 724 471 629 544 736 z m 354 -40 b 354 107 353 -35 354 13 b 354 390 354 175 354 269 b 354 -40 368 403 415 124 z m 421 910 b 244 928 421 910 324 853 b 421 910 244 928 313 985 z "},"k":{"ha":728,"x_min":0,"x_max":0,"o":"m 675 94 b 600 133 640 168 600 133 b 669 90 617 146 657 133 b 660 36 679 50 660 36 b 499 225 599 15 543 132 b 486 251 494 233 490 243 b 576 426 524 290 563 351 b 394 688 582 456 564 643 b 294 682 357 697 324 690 l 294 776 b 357 882 294 835 324 882 b 379 876 365 882 375 879 l 289 975 l 250 932 l 104 761 l 106 761 b 165 696 132 749 154 725 l 167 696 l 167 692 b 174 654 172 681 174 667 l 174 542 b 67 418 49 568 67 418 b 163 525 75 553 163 525 l 165 525 b 174 285 113 447 119 410 l 174 189 b 82 75 174 132 133 86 l 194 -29 l 299 88 l 343 150 b 294 254 318 158 294 203 l 294 607 b 365 603 318 607 340 607 b 517 465 499 571 517 465 b 481 265 540 379 514 313 b 433 394 453 333 433 394 b 296 386 357 304 296 386 b 418 147 342 304 381 194 b 675 94 563 -82 728 -15 z m 261 615 l 261 432 b 261 615 201 544 256 610 z "},"l":{"ha":563,"x_min":0,"x_max":0,"o":"m 431 408 b 376 442 413 422 396 436 l 376 788 b 438 886 376 842 404 886 b 456 882 444 886 450 885 l 372 972 l 338 933 l 199 774 l 199 771 b 257 711 224 763 244 739 b 267 669 263 696 267 683 l 267 481 b 143 479 188 494 129 482 b 267 464 143 479 203 486 l 267 197 b 222 113 267 164 249 132 b 214 150 219 133 214 150 b 69 253 214 150 133 325 b 138 46 0 174 138 46 b 210 14 142 39 171 26 l 207 13 b 58 31 207 13 157 -69 b 228 6 58 31 150 -103 l 228 8 b 272 0 242 4 257 3 l 283 -8 l 290 -1 b 467 78 351 -3 422 14 b 431 408 561 238 458 389 z m 68 207 b 197 97 68 207 160 182 b 178 92 192 94 185 92 l 208 63 b 210 26 210 50 210 39 b 68 207 210 26 96 36 z m 410 165 b 376 388 390 194 374 239 b 410 165 433 326 443 238 z m 231 22 b 233 39 231 31 231 33 l 243 28 b 231 22 235 26 231 22 z "},"m":{"ha":874,"x_min":0,"x_max":0,"o":"m 426 665 b 319 696 403 649 360 625 b 85 492 319 696 175 435 b 88 535 85 492 72 503 b 151 557 106 567 140 569 b 82 540 151 557 122 592 b 94 464 49 494 94 464 b 143 453 94 464 110 450 b 176 418 158 446 169 433 l 178 417 b 182 392 181 407 182 400 l 182 119 b 125 53 182 85 157 58 l 192 -10 l 281 96 b 251 156 265 103 251 128 l 251 317 b 253 308 251 310 253 308 b 367 435 264 468 367 435 l 369 436 b 404 133 313 351 306 258 b 385 115 399 124 393 118 l 483 -4 l 560 67 l 560 68 b 496 143 524 74 496 106 l 501 476 l 503 476 b 504 478 503 478 503 478 b 606 471 532 482 565 481 b 783 310 761 439 783 310 b 667 -11 840 115 667 -11 b 639 574 775 28 1042 451 b 507 561 590 586 546 579 z m 251 346 l 251 464 b 261 507 251 479 257 494 b 289 526 271 513 279 518 b 301 524 293 526 297 525 l 293 531 b 367 597 315 549 339 569 b 378 600 368 600 372 600 b 418 531 399 600 418 569 l 418 497 b 382 453 403 483 393 468 l 381 456 b 251 346 276 478 256 396 z m 381 426 b 418 367 397 406 410 386 l 418 210 b 394 163 407 181 394 163 b 381 426 292 329 381 426 z m 418 422 b 396 442 410 429 403 436 b 418 454 396 442 403 447 z "},"n":{"ha":810,"x_min":0,"x_max":0,"o":"m 536 631 b 431 631 499 638 465 638 b 381 694 413 638 394 654 b 74 522 381 694 158 438 b 86 572 74 522 60 539 b 160 583 111 604 153 597 b 82 578 160 583 139 628 b 75 492 32 536 75 492 b 129 468 75 492 89 471 b 96 325 86 415 96 325 b 151 456 101 400 125 438 l 143 449 b 181 411 160 440 174 428 l 182 411 l 182 410 b 185 386 183 401 185 396 l 185 124 b 131 61 185 94 163 67 l 129 61 l 197 -1 l 258 68 l 286 101 b 261 128 276 107 267 115 b 301 115 274 124 288 117 b 350 342 425 100 350 342 b 260 478 350 342 308 446 b 499 511 260 478 344 544 b 703 329 676 476 703 329 b 568 -40 767 107 568 -40 b 536 631 699 8 996 486 z m 260 157 b 256 163 258 160 256 161 l 256 443 b 260 157 356 306 260 157 z "},"o":{"ha":868,"x_min":0,"x_max":0,"o":"m 604 643 b 533 654 579 649 556 654 b 493 685 519 676 493 685 b 372 629 493 685 444 704 b 149 285 225 582 129 439 b 54 263 118 258 85 244 b 51 315 54 263 35 274 b 124 350 65 354 111 361 b 43 321 124 350 85 388 b 68 228 8 260 68 228 b 160 229 68 228 97 207 b 521 6 206 79 361 -22 b 822 244 650 28 785 117 b 604 643 871 415 774 592 z m 343 372 b 347 368 346 369 346 371 b 353 389 347 368 349 375 b 446 517 381 425 413 467 b 375 490 446 517 417 483 b 413 583 385 522 396 556 b 475 603 431 592 454 599 b 526 606 493 604 508 606 b 474 568 518 576 489 563 b 471 569 472 569 471 569 b 474 568 472 569 472 568 b 533 606 483 565 515 556 b 589 600 550 606 571 604 b 728 276 703 542 764 404 b 506 81 697 169 607 96 b 343 372 519 114 506 208 z m 260 297 b 471 78 333 250 478 153 b 394 85 444 76 419 79 b 375 94 389 88 382 90 b 249 282 310 138 264 204 l 249 286 b 260 297 251 289 256 294 z m 513 658 b 517 656 513 658 515 658 b 468 650 501 656 485 654 b 513 658 482 660 497 663 z "},"p":{"ha":728,"x_min":0,"x_max":0,"o":"m 726 400 b 383 696 674 644 428 700 b 36 504 158 676 6 485 b 375 624 36 504 181 661 l 343 585 l 207 431 b 271 333 246 415 274 375 l 271 274 b 169 210 218 281 168 269 b 271 94 172 150 218 114 l 271 -89 b 186 -190 271 -136 235 -179 l 289 -285 l 383 -178 l 426 -124 b 381 -28 400 -112 381 -75 l 381 -26 b 556 111 431 -32 571 -39 l 553 111 b 726 400 640 163 743 256 z m 540 131 b 408 240 513 182 408 240 b 381 251 408 240 399 244 l 381 446 b 438 542 381 499 407 542 b 457 536 443 542 450 540 l 381 622 b 431 607 396 618 414 614 b 601 372 431 607 579 564 b 540 131 618 210 540 131 z m 381 -24 l 381 68 b 428 67 408 67 428 67 b 529 101 439 64 481 75 l 528 94 b 381 -24 528 94 553 -22 z m 381 189 b 521 114 426 182 475 161 b 381 86 521 114 467 75 z m 207 163 b 271 185 207 163 233 176 l 271 122 b 207 163 251 133 231 146 z "},"q":{"ha":897,"x_min":0,"x_max":0,"o":"m 885 -111 b 504 -117 885 -111 836 10 l 499 93 b 600 208 553 114 599 149 b 499 274 600 267 553 279 l 499 332 b 504 368 499 346 500 356 l 504 371 l 506 372 b 564 428 517 396 538 415 l 431 582 l 397 617 b 732 499 592 657 732 499 b 389 694 763 481 611 676 b 49 399 343 699 103 639 b 222 114 33 256 135 161 l 221 114 b 392 -25 203 -37 342 -31 l 392 -28 b 347 -121 392 -74 372 -111 l 383 -168 b 369 -174 378 -171 374 -172 b 385 -172 369 -174 376 -172 l 482 -281 l 517 -246 b 881 -149 600 -190 817 -54 b 853 -199 881 -149 889 -172 b 764 -194 817 -231 772 -214 b 857 -210 764 -194 781 -250 b 885 -111 924 -174 885 -111 z m 174 372 b 342 601 193 560 342 601 b 392 615 357 607 376 614 l 315 531 b 335 536 322 535 331 536 b 392 442 365 536 392 496 l 392 250 b 364 239 376 243 364 239 b 236 131 364 239 263 183 b 174 372 236 131 156 208 z m 247 94 l 244 99 b 343 67 293 75 333 65 b 392 69 343 67 364 67 l 392 -21 b 247 94 221 -21 247 94 z m 392 86 b 256 114 306 75 256 114 b 392 188 297 161 346 181 z m 499 185 b 564 161 538 176 564 161 b 499 122 542 146 518 133 z "},"r":{"ha":638,"x_min":0,"x_max":0,"o":"m 613 604 b 326 653 613 604 589 701 l 274 711 l 247 679 l 142 560 b 186 514 164 551 179 536 l 188 514 l 188 513 b 193 485 190 503 193 494 l 193 465 b 132 461 150 469 124 464 b 193 457 132 461 158 464 l 193 188 b 185 213 189 201 185 213 b 76 292 185 213 124 347 b 128 135 24 232 128 135 b 179 113 131 131 151 119 b 165 94 174 106 169 100 b 67 122 146 85 115 75 b 126 76 67 122 93 88 l 207 1 l 278 86 l 296 106 b 376 160 326 114 353 129 b 347 408 446 278 368 394 b 276 449 326 426 300 439 l 276 529 b 604 575 322 553 561 671 b 576 538 604 575 610 556 b 506 553 543 515 508 538 b 578 529 506 553 511 504 b 613 604 638 550 613 604 z m 332 354 b 314 196 332 354 378 279 b 283 163 303 181 293 172 l 276 422 b 332 354 300 407 318 383 z m 74 258 b 183 119 74 258 182 226 b 74 258 183 119 96 129 z "},"s":{"ha":568,"x_min":0,"x_max":0,"o":"m 540 3 b 469 101 540 3 454 10 b 168 461 638 399 347 514 b 308 435 168 461 239 468 b 275 429 289 433 275 429 b 182 379 275 429 204 408 b 358 635 126 467 208 629 b 532 542 508 640 532 542 b 372 692 547 526 506 653 b 103 567 344 700 164 708 b 171 371 74 482 124 411 l 169 369 b 269 265 136 263 269 265 b 185 357 153 286 185 357 l 185 360 b 240 326 210 339 235 326 b 400 353 240 326 354 306 b 413 329 404 344 407 338 b 389 135 413 329 467 239 b 260 89 357 89 313 89 b 247 89 256 89 251 89 b 232 158 243 124 232 158 b 100 254 232 158 156 321 b 92 160 75 225 78 190 b 88 124 85 142 88 124 b 218 22 88 124 88 58 b 88 46 203 7 160 -24 b 239 17 88 46 167 -68 b 540 3 306 3 401 -6 z m 190 368 b 386 358 289 436 386 358 b 190 368 256 294 190 368 z m 135 111 b 108 164 124 126 117 143 b 144 188 113 171 122 179 l 146 188 b 222 89 175 169 208 139 b 135 111 186 90 154 96 z m 136 194 b 104 178 122 192 111 186 b 96 211 101 189 100 199 b 136 194 96 211 113 207 z "},"t":{"ha":753,"x_min":0,"x_max":0,"o":"m 632 719 b 554 694 561 746 554 694 b 631 711 557 711 596 732 b 663 669 669 690 663 669 b 307 724 621 576 392 683 b 408 833 349 849 375 850 l 325 972 l 199 792 b 138 779 185 782 161 781 b 38 686 88 778 32 776 b 110 601 42 583 110 601 b 86 746 38 590 29 746 b 206 540 161 744 194 647 b 182 253 221 289 206 267 b 171 397 182 253 96 281 b 182 232 171 397 63 285 l 185 232 b 211 131 182 203 199 164 b 99 110 239 65 258 19 b 619 407 475 -325 754 206 b 361 90 693 231 514 -11 l 381 117 b 310 283 346 128 292 147 b 375 207 344 260 375 207 b 361 311 371 244 367 279 b 304 428 429 363 382 456 b 304 461 303 432 304 443 b 307 618 306 492 308 542 b 632 719 667 524 753 676 z "},"u":{"ha":558,"x_min":0,"x_max":0,"o":"m 508 133 b 546 49 531 133 563 93 b 504 7 529 3 504 7 b 443 249 429 24 428 142 b 433 690 572 650 433 690 b 344 657 433 690 369 722 b 369 574 314 585 369 574 b 353 653 350 581 329 618 b 399 683 376 690 399 683 b 393 436 465 647 435 531 b 350 513 353 461 350 513 l 342 333 b 329 314 333 319 329 314 b 342 313 333 314 338 314 b 358 147 343 246 349 190 b 263 92 329 99 301 85 b 163 590 146 111 15 464 b 54 306 99 544 54 435 b 226 0 54 135 132 0 b 364 119 283 1 333 49 b 468 -14 401 -10 468 -14 b 557 49 468 -14 544 -29 b 508 133 569 135 508 133 z "},"v":{"ha":563,"x_min":0,"x_max":0,"o":"m 438 682 b 219 606 374 713 290 679 l 172 658 l 169 660 l 143 689 l 83 622 b 99 624 88 622 93 624 b 142 551 121 624 142 593 l 142 192 b 107 119 142 157 126 126 l 139 78 l 210 -4 l 289 68 b 283 69 288 68 285 69 b 469 286 351 107 422 185 b 438 682 549 460 535 636 z m 424 260 b 275 74 388 176 331 110 b 224 146 244 85 224 114 b 224 168 224 153 224 161 b 272 542 221 501 221 531 l 231 590 b 388 622 285 629 342 643 b 424 260 481 578 499 417 z "},"w":{"ha":847,"x_min":0,"x_max":0,"o":"m 706 683 b 472 586 636 713 546 672 l 415 647 l 390 679 l 332 611 l 331 610 l 332 611 b 344 615 335 614 340 615 b 388 544 367 615 388 583 l 388 189 b 379 150 388 175 385 161 b 328 194 371 201 328 194 b 374 138 346 196 372 174 b 353 119 369 129 361 121 l 378 86 b 335 71 367 56 335 71 b 254 300 260 82 249 194 b 203 724 340 699 203 724 b 118 683 203 724 139 747 b 151 607 99 610 151 607 b 128 683 133 608 108 646 b 168 714 147 719 168 714 b 188 476 239 686 218 571 b 140 546 146 496 140 546 b 147 371 140 478 142 421 b 139 351 142 358 139 351 l 150 351 b 238 24 183 44 238 24 b 388 75 272 -15 389 -33 l 454 -3 l 531 68 b 738 294 607 100 688 181 b 706 683 817 463 803 636 z m 693 264 b 525 69 651 175 589 103 b 468 146 493 81 468 110 b 474 367 472 242 474 314 b 515 533 478 517 478 526 l 517 533 l 481 575 b 658 622 540 626 607 646 b 693 264 749 579 765 419 z "},"x":{"ha":881,"x_min":0,"x_max":0,"o":"m 828 701 b 632 621 828 701 774 753 l 628 625 l 624 613 b 550 532 601 592 576 565 b 600 544 550 532 574 553 b 544 454 585 511 567 475 b 514 469 531 467 514 469 b 489 472 514 469 504 475 b 529 499 493 497 519 504 b 485 475 529 499 503 518 b 483 472 483 474 483 472 b 472 468 479 469 475 469 b 328 578 431 503 383 539 b 361 479 328 578 372 535 b 132 669 243 515 110 579 b 196 689 132 669 143 696 b 256 610 247 683 267 632 b 199 699 256 610 290 669 b 97 644 119 726 97 644 b 278 394 97 644 49 540 b 257 393 261 396 253 394 b 292 385 257 393 271 390 b 351 351 310 374 329 363 b 264 172 322 308 294 251 b 257 160 263 168 260 164 b 172 243 249 190 218 278 b 190 85 111 197 190 85 b 197 79 192 83 194 82 b 164 49 188 68 175 57 b 132 86 156 57 144 69 b 158 46 132 86 140 63 b 90 38 136 32 113 28 b 83 92 90 38 71 50 b 157 128 97 132 140 140 b 78 96 157 128 117 164 b 104 6 43 36 104 6 b 253 44 104 6 153 -31 b 431 61 303 22 372 10 b 461 283 503 144 479 242 l 467 294 b 497 282 476 290 486 285 b 672 31 608 211 715 115 b 600 28 672 31 656 6 b 551 128 543 47 535 108 b 592 18 551 128 500 74 b 719 49 674 -33 719 49 b 556 394 719 49 803 156 l 556 399 b 558 428 561 410 561 419 b 703 603 593 443 643 490 b 836 678 744 656 796 703 b 833 643 836 678 846 669 b 781 622 822 617 790 613 b 839 638 781 622 806 594 b 828 701 867 676 828 701 z m 379 107 b 269 57 333 67 292 58 b 369 160 300 82 332 114 b 379 153 372 158 375 156 b 381 174 379 153 379 161 b 431 239 396 193 413 214 b 379 107 433 213 435 156 z m 164 213 b 236 126 164 213 217 185 b 204 85 226 113 215 99 b 164 213 183 107 161 146 z m 550 401 l 550 400 b 529 419 543 407 536 413 b 549 424 535 419 542 421 b 550 401 550 417 550 410 z m 408 296 b 419 275 413 290 417 282 l 401 275 b 408 296 406 282 407 290 z m 535 446 b 519 439 529 442 525 440 b 501 443 515 440 510 442 b 535 446 511 447 522 449 z m 458 290 b 450 303 454 294 453 299 b 465 294 457 299 461 297 b 458 290 463 293 461 292 z "},"y":{"ha":744,"x_min":0,"x_max":0,"o":"m 481 96 b 440 118 463 108 460 110 b 663 363 550 188 604 244 b 633 688 729 504 714 651 b 292 481 561 722 360 594 b 540 610 353 563 492 653 b 422 139 689 485 578 211 b 418 167 422 147 422 157 b 349 215 394 242 349 215 b 411 163 365 224 404 207 b 408 129 414 146 413 136 b 404 125 407 129 407 129 b 319 142 376 136 347 140 b 249 278 290 175 267 226 b 64 619 188 643 64 619 b 8 557 64 619 3 618 b 54 503 11 504 42 501 b 61 504 57 503 60 503 b 54 503 61 504 58 503 b 15 558 38 503 11 525 b 40 600 21 597 40 600 b 133 406 108 600 131 494 b 71 446 93 407 71 446 b 135 301 93 392 115 342 b 244 142 157 249 217 172 b 175 124 194 138 161 124 b 257 132 175 124 208 133 b 375 83 328 63 375 83 b 393 92 375 83 383 86 b 472 18 422 74 449 50 b 479 -207 472 18 550 -78 b 332 -335 418 -319 332 -335 b 296 -208 338 -287 296 -208 b 132 -122 296 -208 185 -37 b 235 -328 71 -215 235 -328 b 313 -349 240 -333 271 -344 l 308 -351 b 153 -356 308 -351 272 -443 b 333 -354 153 -356 269 -479 l 332 -353 b 572 -243 413 -361 517 -344 b 481 96 644 -65 513 78 z m 135 -169 b 314 -337 135 -169 290 -189 b 135 -169 314 -337 193 -344 z "},"z":{"ha":660,"x_min":0,"x_max":0,"o":"m 415 165 b 401 276 419 199 418 236 b 342 329 385 301 364 321 l 464 540 b 536 581 486 574 517 592 b 546 568 542 578 544 574 l 546 571 l 536 635 b 586 610 557 635 575 628 b 568 568 586 610 590 588 b 513 572 546 554 521 561 b 511 578 511 575 511 578 b 513 572 511 576 513 574 b 569 563 518 563 532 546 b 590 635 613 583 590 635 b 278 626 590 635 556 731 b 106 651 204 610 122 599 b 135 685 106 651 104 669 b 194 661 165 697 193 676 b 194 660 194 660 194 660 l 194 661 b 133 690 193 669 188 701 b 94 628 81 678 94 628 b 328 550 94 628 103 540 l 328 540 b 342 550 328 540 332 544 b 364 551 349 550 357 551 l 364 536 l 363 535 b 354 510 361 526 358 517 l 256 342 b 239 340 251 342 246 342 l 240 342 b 122 339 193 424 122 339 b 224 340 197 401 224 340 l 225 339 b 175 324 199 335 179 325 b 104 207 175 324 96 263 l 104 206 b 107 194 104 201 106 199 l 131 114 b 82 53 85 86 82 53 b 142 -44 82 53 58 -26 b 236 -3 236 -68 236 -3 b 143 -36 235 -24 192 -58 b 99 13 94 -14 99 13 b 315 71 122 82 217 88 b 147 24 247 3 147 24 b 349 50 129 21 253 -11 b 361 60 353 51 357 56 b 564 0 467 39 564 0 b 660 139 536 143 660 139 b 415 165 561 156 482 164 z m 288 238 l 314 283 b 340 250 324 276 332 263 b 363 167 358 219 364 189 b 279 161 331 165 304 164 b 288 238 268 178 269 208 z m 228 331 b 114 215 217 233 114 215 b 228 331 146 331 228 331 z m 247 329 l 240 317 b 239 331 240 322 240 325 b 247 329 239 331 243 331 z "},"A":{"ha":1026,"x_min":0,"x_max":0,"o":"m 978 149 b 611 922 982 286 917 525 b 675 964 632 935 653 950 b 586 956 675 964 631 944 b 492 1067 557 992 529 1028 b -11 814 440 1013 111 681 b 11 890 -11 814 -31 842 b 133 903 53 939 118 928 b 6 901 133 903 97 975 b -10 758 -78 838 -10 758 b 179 721 -10 758 33 693 l 150 686 b 206 636 150 686 206 721 b 203 315 206 578 203 414 b -99 57 53 253 -58 156 b 203 278 -47 146 63 228 b 178 57 208 179 189 79 l 169 64 b 178 57 171 51 174 50 l 242 0 l 368 144 b 313 307 283 97 313 307 b 861 121 581 365 825 281 b 663 207 928 -165 508 44 b 817 -61 540 122 694 -78 b 593 -232 769 -126 692 -189 b 978 149 828 -153 989 4 z m 313 353 l 325 772 b 749 367 381 728 611 549 b 313 353 594 406 456 385 z "},"B":{"ha":868,"x_min":0,"x_max":0,"o":"m 593 526 b 242 974 1014 850 746 1013 b -186 824 56 960 -106 907 b 190 931 -103 889 35 931 b 381 908 258 931 322 922 b 178 619 225 750 192 692 b 297 740 200 694 247 744 b 306 739 300 740 303 740 b 310 710 308 732 310 722 b 308 563 310 681 310 624 b 222 467 265 546 228 517 b 308 397 215 413 258 397 b 307 301 308 342 307 301 l 308 303 b 271 124 303 115 278 119 l 346 60 b 74 201 179 61 74 201 b 385 -8 46 222 175 28 b 769 238 428 -15 701 11 b 593 526 806 388 681 489 z m 628 267 b 438 74 593 90 438 74 b 351 60 407 64 378 61 l 476 206 b 421 257 476 206 421 169 l 421 414 b 450 424 435 418 450 424 b 576 513 450 424 546 467 b 628 267 576 513 657 419 z m 651 681 b 596 561 651 638 632 596 b 424 671 600 696 424 671 b 568 546 604 663 568 546 l 568 542 b 478 582 532 579 489 578 b 422 582 478 582 454 583 l 422 664 l 421 664 b 458 843 426 860 454 846 l 383 907 b 651 681 601 875 651 792 z m 453 475 b 421 469 442 472 432 471 b 422 567 422 504 422 538 b 558 529 506 574 554 533 b 453 475 529 508 493 490 z m 263 508 b 308 535 278 525 290 531 b 311 471 308 518 311 486 b 263 508 281 472 263 508 z "},"C":{"ha":1233,"x_min":0,"x_max":0,"o":"m 1192 256 b 971 115 1192 256 1106 161 b 972 139 972 124 974 132 b 800 233 967 194 893 233 b 929 144 871 226 925 192 b 918 101 931 131 926 115 b 671 124 846 86 761 88 b 539 215 671 124 601 144 b 563 269 549 228 557 246 b 501 396 589 397 501 396 b 549 269 532 396 575 336 b 525 231 542 253 533 240 b 449 432 489 278 458 342 b 533 751 428 649 533 751 b 688 617 561 699 649 640 b 690 400 704 556 706 481 b 721 600 713 469 722 538 b 1019 643 786 575 1022 496 b 692 835 1017 811 750 832 b 717 881 703 849 711 864 b 1138 728 874 907 1033 849 b 725 983 1057 890 894 983 b 606 1243 715 1064 674 1157 b 671 979 664 1150 689 1053 b 522 935 621 974 571 960 b 429 874 489 918 457 897 b 307 931 390 886 349 904 b 303 963 303 949 303 963 b 299 936 301 954 300 944 b 194 1024 263 960 228 989 b 40 1350 92 1128 38 1253 b 208 958 21 1242 83 1088 b 293 885 235 931 264 906 b 276 704 285 818 279 758 b 175 528 238 654 203 594 b 164 63 101 346 100 164 b 188 456 121 160 126 308 b 274 608 211 514 240 565 l 274 606 b 285 393 261 536 264 464 b 733 4 353 75 672 0 b 750 6 739 6 744 6 b 789 7 763 6 776 7 b 913 46 838 13 879 26 b 1192 256 1106 124 1224 275 z m 969 706 b 714 679 969 706 847 644 b 663 807 706 731 688 775 b 665 810 663 808 664 808 b 969 706 738 819 843 804 z "},"D":{"ha":974,"x_min":0,"x_max":0,"o":"m 825 907 b 336 1017 685 1076 485 1063 l 336 1022 b 3 956 167 1231 3 956 b 294 1010 189 1167 294 1010 l 300 1006 b 164 933 213 990 171 946 b 50 508 164 933 -97 660 b 314 703 163 397 275 618 b 311 290 314 554 311 290 l 314 292 b 268 78 306 58 275 75 l 278 69 b 229 68 249 67 229 68 b 293 56 213 64 240 54 l 360 0 l 422 71 b 789 242 535 90 674 138 b 825 907 839 285 1032 604 z m 742 385 b 456 110 679 232 563 150 l 514 175 b 446 238 514 175 446 132 b 447 438 446 276 446 356 b 447 719 447 574 449 721 b 492 935 453 956 486 939 l 464 960 b 668 804 524 933 596 886 b 742 385 850 588 742 385 z m 42 599 b 307 981 78 946 307 981 b 303 900 308 953 307 928 l 246 836 b 289 843 246 836 269 853 b 42 599 228 664 42 599 z m 374 985 l 349 958 b 343 988 347 967 346 978 b 374 985 343 988 354 988 z "},"&":{"ha":1050,"x_min":0,"x_max":0,"o":"m 978 565 b 746 401 978 565 883 610 b 743 400 744 404 743 404 b 742 396 743 400 742 399 b 700 324 728 374 715 350 l 490 510 b 482 522 489 514 485 518 b 453 544 472 532 464 539 l 444 553 b 582 660 489 572 543 606 b 531 943 599 683 647 836 b 317 940 456 999 372 972 l 315 942 b 181 879 222 1011 181 879 b 299 932 239 988 299 932 l 301 931 b 251 886 272 911 254 893 b 214 765 251 886 213 822 l 182 768 l 222 622 l 247 551 b 321 532 264 558 292 550 b 222 469 267 507 222 469 b 175 388 214 464 192 433 l 174 392 b 214 568 174 392 81 461 b 164 365 214 568 43 478 l 165 365 b 214 68 135 281 119 158 b 742 157 325 -37 549 -76 l 774 128 b 826 15 821 85 844 35 b 810 7 822 11 817 8 l 936 -14 l 922 40 l 921 42 l 853 282 b 914 360 872 306 893 332 b 825 332 914 360 875 321 b 999 533 860 436 919 556 b 1015 476 999 533 1022 524 b 944 424 1008 431 964 414 b 1024 472 944 424 994 393 b 978 565 1050 544 978 565 z m 183 361 b 338 363 233 342 338 363 b 451 419 338 363 404 385 l 656 235 b 410 92 610 126 522 71 b 418 129 410 101 411 113 b 508 169 438 178 492 185 b 410 135 508 169 461 217 b 394 94 400 121 396 107 b 283 160 360 106 321 125 b 183 361 176 261 183 361 z m 326 757 l 325 758 b 340 821 335 789 340 821 b 322 926 340 821 342 894 b 474 883 322 926 392 946 b 547 715 572 811 547 715 b 436 561 535 633 481 586 l 369 621 b 328 757 324 661 307 718 z m 342 518 b 357 506 346 514 351 510 l 393 474 b 188 383 356 426 290 372 b 342 518 188 383 208 481 z m 307 921 b 264 763 328 847 293 792 l 231 764 b 307 921 226 888 307 921 z "},"?":{"ha":636,"x_min":0,"x_max":0,"o":"m 600 876 b 304 1107 547 1074 342 1111 b 24 936 118 1083 0 919 b 346 1033 24 936 160 1099 b 497 847 346 1033 474 1004 b 453 647 517 714 453 647 b 415 686 446 660 432 674 b 371 779 410 765 371 779 b 292 757 371 779 319 810 b 289 746 292 754 290 750 b 144 699 229 761 139 771 b 281 597 150 633 219 607 b 268 479 275 553 268 513 b 253 463 257 468 253 463 l 265 463 b 276 271 257 375 265 313 b 185 200 213 250 175 194 b 282 254 185 200 224 250 b 350 172 307 178 350 172 b 399 176 350 172 376 165 b 403 161 401 171 403 167 b 383 69 413 100 383 69 b 331 108 372 88 331 108 b 240 93 331 108 236 142 b 342 44 244 39 342 44 b 381 57 346 43 361 47 l 379 54 b 318 7 379 54 392 8 b 390 61 318 7 401 -7 l 388 64 b 449 175 421 83 458 119 b 429 219 446 192 438 206 l 431 219 b 396 294 447 293 396 294 b 424 226 414 293 436 261 b 332 278 396 261 356 274 b 347 399 331 315 336 360 b 390 515 367 444 381 483 b 469 631 435 524 482 551 l 464 631 b 600 876 538 676 618 757 z m 179 663 b 296 692 179 663 229 690 b 307 685 301 686 307 685 b 297 692 304 686 301 688 b 367 679 318 690 342 688 b 339 603 358 657 350 628 b 290 610 324 603 307 607 b 288 631 288 622 288 631 b 285 611 286 624 286 618 b 179 663 251 619 218 635 z m 256 76 b 375 64 256 76 324 113 b 256 76 375 64 329 24 z m 394 528 b 413 606 403 557 408 581 b 446 619 424 610 433 614 l 443 618 b 394 528 443 618 463 557 z m 300 754 b 340 775 321 782 340 775 b 369 717 361 761 369 740 b 340 732 353 726 340 732 b 296 744 340 732 321 739 b 300 754 297 747 297 753 z m 396 189 b 382 186 388 186 382 186 b 336 249 356 194 342 217 b 396 189 343 244 379 231 z m 332 590 b 318 564 328 583 324 574 b 296 594 307 574 300 585 b 332 590 308 592 321 592 z m 438 633 b 414 619 438 633 431 625 b 415 653 414 629 415 640 b 438 633 424 647 431 639 z "},"!":{"ha":419,"x_min":0,"x_max":0,"o":"m 333 517 b 347 536 342 529 347 536 b 335 538 343 536 339 538 b 315 792 343 657 332 738 b 168 965 290 894 233 965 b 13 768 97 967 36 883 b 153 922 40 860 93 924 b 207 904 172 922 190 917 b 126 843 182 907 140 900 b 169 747 103 750 169 747 b 136 842 146 749 114 794 b 186 885 158 889 186 885 b 229 617 267 857 257 731 b 143 253 154 438 138 324 b 14 169 57 236 3 163 b 147 225 14 169 68 235 b 200 138 161 153 200 138 b 251 128 200 138 224 124 l 251 126 b 229 25 261 58 229 25 b 174 68 217 46 174 68 b 75 51 174 68 71 104 b 185 -3 79 -7 185 -3 b 226 13 189 -3 207 1 l 225 11 b 160 -40 225 11 239 -40 b 236 17 160 -40 249 -57 l 236 18 b 303 140 272 40 313 81 b 296 160 301 147 299 154 b 299 167 297 163 299 164 b 281 257 338 242 281 257 b 290 171 300 251 318 207 b 204 246 269 211 235 233 b 267 407 211 296 238 356 b 306 324 308 378 306 324 b 333 517 319 397 328 460 z m 92 33 b 222 18 92 33 164 74 b 92 33 222 18 172 -24 z m 247 142 b 238 143 242 142 238 143 b 203 206 215 157 206 179 b 247 142 219 196 239 176 z "},".":{"ha":243,"x_min":0,"x_max":0,"o":"m 121 -3 b 243 118 121 68 172 118 b 121 240 172 118 121 171 b 0 118 121 171 69 118 b 121 -3 69 118 121 68 z "},":":{"ha":243,"x_min":0,"x_max":0,"o":"m 121 -3 b 243 118 121 68 172 118 b 121 240 172 118 121 171 b 0 118 121 171 69 118 b 121 -3 69 118 121 68 z m 121 453 b 243 574 121 524 172 574 b 121 696 172 574 121 626 b 0 574 121 626 69 574 b 121 453 69 574 121 524 z "},";":{"ha":344,"x_min":0,"x_max":0,"o":"m 222 453 b 344 574 222 524 274 574 b 222 696 274 574 222 626 b 101 574 222 626 171 574 b 222 453 171 574 222 524 z m 68 0 b 10 -57 68 0 19 17 b 65 -125 0 -121 65 -125 b 288 261 65 -125 207 -158 b 158 229 288 261 257 172 b 42 -103 158 229 168 -107 b 17 -57 42 -103 21 -96 b 68 0 15 -18 51 4 z "},",":{"ha":290,"x_min":0,"x_max":0,"o":"m 68 -92 b 10 -149 68 -92 19 -75 b 65 -217 0 -212 65 -217 b 288 169 65 -217 207 -250 b 158 138 288 169 257 81 b 42 -194 158 138 168 -199 b 17 -149 42 -194 21 -187 b 68 -92 15 -110 51 -87 z "},"'":{"ha":185,"x_min":0,"x_max":0,"o":"m 114 1168 b 67 1182 97 1201 67 1182 b 81 958 67 1182 0 1157 b 61 832 94 904 97 846 b 39 854 61 832 47 832 b 51 896 28 875 40 894 b 53 896 53 896 53 896 l 51 896 b 33 851 46 894 24 890 b 81 826 42 813 81 826 b 132 994 81 826 143 835 b 138 997 132 994 135 997 b 128 1006 138 997 135 1000 b 117 1094 128 1031 122 1061 b 97 1056 117 1094 117 1069 b 86 1179 72 1100 53 1160 b 108 1168 86 1179 94 1185 b 106 1126 122 1151 114 1129 b 114 1168 106 1126 132 1135 z "},"(":{"ha":368,"x_min":0,"x_max":0,"o":"m 75 72 b 64 67 71 71 68 68 b 82 53 64 67 71 61 b 158 -115 101 4 125 -51 b 171 -28 158 -115 142 -67 b 267 -258 244 -101 319 -201 b 213 -249 267 -258 247 -274 b 199 -168 178 -224 182 -179 b 206 -254 199 -168 150 -196 b 301 -253 254 -306 301 -253 b 149 171 301 -253 418 -164 b 104 263 132 199 115 231 b 188 297 126 254 161 254 b 192 383 213 343 203 368 b 182 401 189 388 186 396 b 110 440 160 438 132 443 b 154 531 122 469 136 500 b 306 954 424 863 306 954 b 210 954 306 954 258 1004 b 203 867 156 896 203 867 b 217 949 188 878 181 924 b 271 958 253 974 271 958 b 176 728 322 900 249 801 b 161 814 146 765 161 814 b 88 647 131 750 107 697 b 68 632 76 638 68 632 b 79 628 74 632 76 631 b 75 72 13 440 11 251 z m 117 422 b 172 397 117 422 139 435 b 176 394 175 397 175 396 b 174 396 175 396 175 396 l 172 396 b 174 396 172 396 172 396 b 176 394 175 396 175 394 b 174 306 201 361 192 319 b 168 303 171 304 168 303 b 174 306 169 304 172 304 b 189 318 178 308 183 313 b 178 301 186 313 182 307 b 121 276 144 264 121 276 b 97 401 85 301 82 347 b 117 422 101 410 108 418 z "},")":{"ha":368,"x_min":0,"x_max":0,"o":"m 358 625 b 369 631 363 626 365 629 b 351 644 369 631 363 636 b 275 813 332 693 308 749 b 263 725 275 813 292 764 b 167 956 189 799 114 899 b 221 946 167 956 186 971 b 235 865 256 921 251 876 b 228 951 235 865 283 893 b 132 950 179 1003 132 950 b 285 526 132 950 15 861 b 329 435 301 499 318 467 b 246 400 307 443 272 443 b 242 314 221 354 231 329 b 251 296 244 310 247 301 b 324 257 274 260 301 254 b 279 167 311 228 297 197 b 128 -257 10 -165 128 -257 b 224 -257 128 -257 175 -307 b 231 -169 278 -199 231 -169 b 217 -251 246 -181 253 -226 b 163 -261 181 -276 163 -261 b 257 -31 111 -203 185 -104 b 272 -117 288 -68 272 -117 b 346 50 303 -53 326 0 b 365 65 357 60 365 65 b 354 69 360 65 357 67 b 358 625 421 257 422 446 z m 317 275 b 261 300 317 275 294 263 b 257 303 258 300 258 301 b 260 301 258 301 258 301 l 261 301 b 260 301 261 301 261 301 b 257 303 258 301 258 303 b 260 392 232 336 242 378 b 265 394 263 393 265 394 b 260 392 264 393 261 393 b 244 379 256 389 250 385 b 256 396 247 385 251 390 b 313 421 289 433 313 421 b 336 296 349 396 351 350 b 317 275 332 288 325 279 z "},"-":{"ha":704,"x_min":0,"x_max":0,"o":"m 503 393 b 568 361 581 393 568 361 l 633 428 l 568 494 b 501 464 568 460 501 464 l 232 465 b 160 496 146 464 160 496 l 93 429 l 160 363 b 233 393 160 363 150 393 z "}}}
